<svg width="32" height="32" viewBox="0 0 32 32" fill="none" xmlns="http://www.w3.org/2000/svg">
<path d="M16 32C24.8366 32 32 24.8366 32 16C32 7.16344 24.8366 0 16 0C7.16344 0 0 7.16344 0 16C0 24.8366 7.16344 32 16 32Z" fill="#3434FF"/>
<path fill-rule="evenodd" clip-rule="evenodd" d="M15.0156 7.82161C15.7934 8.59937 15.7934 9.86038 15.0156 10.6381L10.538 15.1158C9.76022 15.8935 8.49921 15.8935 7.72145 15.1158C6.94368 14.338 6.94368 13.077 7.72145 12.2992L12.1991 7.82161C12.9768 7.04384 14.2379 7.04384 15.0156 7.82161Z" fill="white"/>
<path fill-rule="evenodd" clip-rule="evenodd" d="M23.4489 8.84602C24.2267 9.62379 24.2267 10.8848 23.4489 11.6626L11.5622 23.5493C10.7844 24.327 9.52343 24.327 8.74566 23.5493C7.9679 22.7715 7.9679 21.5105 8.74566 20.7327L20.6324 8.84602C21.4101 8.06825 22.6711 8.06825 23.4489 8.84602Z" fill="white"/>
<path fill-rule="evenodd" clip-rule="evenodd" d="M24.4735 17.2791C25.2513 18.0569 25.2513 19.3179 24.4735 20.0957L19.9955 24.5737C19.2177 25.3515 17.9567 25.3515 17.1789 24.5737C16.4012 23.796 16.4012 22.535 17.1789 21.7572L21.657 17.2791C22.4348 16.5014 23.6958 16.5014 24.4735 17.2791Z" fill="white"/>
</svg>
