<svg width="172" height="28" viewBox="0 0 172 28" fill="none" xmlns="http://www.w3.org/2000/svg">
<path d="M38.4434 11.5337C38.4434 9.72103 38.8481 8.1019 39.6577 6.67637C40.4849 5.23323 41.6024 4.11568 43.0103 3.32372C44.4359 2.51416 46.0286 2.10938 47.7885 2.10938C49.8476 2.10938 51.6516 2.63735 53.2003 3.6933C54.749 4.74925 55.8314 6.20999 56.4473 8.0755H52.1971C51.7747 7.19554 51.1764 6.53557 50.402 6.09559C49.6452 5.65561 48.7653 5.43562 47.7621 5.43562C46.6886 5.43562 45.7294 5.69081 44.8847 6.20119C44.0575 6.69397 43.4063 7.39793 42.9312 8.31309C42.4736 9.22825 42.2448 10.3018 42.2448 11.5337C42.2448 12.7481 42.4736 13.8216 42.9312 14.7544C43.4063 15.6696 44.0575 16.3823 44.8847 16.8927C45.7294 17.3855 46.6886 17.6319 47.7621 17.6319C48.7653 17.6319 49.6452 17.4119 50.402 16.9719C51.1764 16.5143 51.7747 15.8455 52.1971 14.9656H56.4473C55.8314 16.8487 54.749 18.3182 53.2003 19.3742C51.6692 20.4125 49.8652 20.9317 47.7885 20.9317C46.0286 20.9317 44.4359 20.5357 43.0103 19.7438C41.6024 18.9342 40.4849 17.8167 39.6577 16.3911C38.8481 14.9656 38.4434 13.3465 38.4434 11.5337Z" fill="#0B0B2C"/>
<path d="M66.0982 21.0109C64.6902 21.0109 63.4231 20.7029 62.2967 20.087C61.1704 19.4534 60.2816 18.5646 59.6304 17.4207C58.9969 16.2767 58.6801 14.9568 58.6801 13.4609C58.6801 11.9649 59.0057 10.645 59.6568 9.50104C60.3256 8.35709 61.232 7.47713 62.3759 6.86116C63.5199 6.22759 64.7958 5.9108 66.2037 5.9108C67.6117 5.9108 68.8876 6.22759 70.0316 6.86116C71.1755 7.47713 72.0731 8.35709 72.7243 9.50104C73.393 10.645 73.7274 11.9649 73.7274 13.4609C73.7274 14.9568 73.3842 16.2767 72.6979 17.4207C72.0291 18.5646 71.1139 19.4534 69.9524 20.087C68.8084 20.7029 67.5237 21.0109 66.0982 21.0109ZM66.0982 17.7903C66.7669 17.7903 67.3917 17.6319 67.9725 17.3151C68.5708 16.9807 69.046 16.4879 69.398 15.8367C69.75 15.1856 69.926 14.3936 69.926 13.4609C69.926 12.0705 69.5564 11.0058 68.8172 10.2666C68.0957 9.50984 67.2069 9.13145 66.151 9.13145C65.095 9.13145 64.2062 9.50984 63.4847 10.2666C62.7807 11.0058 62.4287 12.0705 62.4287 13.4609C62.4287 14.8512 62.7719 15.9247 63.4583 16.6815C64.1622 17.4207 65.0422 17.7903 66.0982 17.7903Z" fill="#0B0B2C"/>
<path d="M94.6008 5.9372C96.3959 5.9372 97.8391 6.49157 98.9302 7.60032C100.039 8.69147 100.593 10.2226 100.593 12.1937V20.7733H96.8975V12.6953C96.8975 11.5513 96.6071 10.6802 96.0263 10.0818C95.4456 9.46584 94.6536 9.15785 93.6504 9.15785C92.6473 9.15785 91.8465 9.46584 91.2482 10.0818C90.6674 10.6802 90.377 11.5513 90.377 12.6953V20.7733H86.6812V12.6953C86.6812 11.5513 86.3908 10.6802 85.81 10.0818C85.2292 9.46584 84.4373 9.15785 83.4341 9.15785C82.4134 9.15785 81.6038 9.46584 81.0054 10.0818C80.4247 10.6802 80.1343 11.5513 80.1343 12.6953V20.7733H76.4384V6.14839H80.1343V7.91711C80.6094 7.30114 81.2166 6.81716 81.9558 6.46518C82.7125 6.11319 83.5397 5.9372 84.4373 5.9372C85.5812 5.9372 86.602 6.18359 87.4995 6.67637C88.3971 7.15154 89.0923 7.83791 89.585 8.73547C90.0602 7.89071 90.7466 7.21314 91.6441 6.70276C92.5593 6.19239 93.5448 5.9372 94.6008 5.9372Z" fill="#0B0B2C"/>
<path d="M107.796 8.26029C108.271 7.59152 108.923 7.03715 109.75 6.59717C110.595 6.13959 111.554 5.9108 112.627 5.9108C113.877 5.9108 115.003 6.21879 116.006 6.83476C117.027 7.45073 117.828 8.33069 118.409 9.47464C119.007 10.601 119.306 11.9121 119.306 13.4081C119.306 14.904 119.007 16.2327 118.409 17.3943C117.828 18.5382 117.027 19.427 116.006 20.0606C115.003 20.6941 113.877 21.0109 112.627 21.0109C111.554 21.0109 110.603 20.7909 109.776 20.3509C108.967 19.911 108.307 19.3566 107.796 18.6878V27.7426H104.1V6.14839H107.796V8.26029ZM115.531 13.4081C115.531 12.5281 115.346 11.7713 114.977 11.1378C114.625 10.4866 114.15 9.99382 113.551 9.65943C112.97 9.32505 112.337 9.15785 111.65 9.15785C110.982 9.15785 110.348 9.33385 109.75 9.68583C109.169 10.0202 108.694 10.513 108.324 11.1642C107.972 11.8153 107.796 12.5809 107.796 13.4609C107.796 14.3408 107.972 15.1064 108.324 15.7576C108.694 16.4087 109.169 16.9103 109.75 17.2623C110.348 17.5967 110.982 17.7639 111.65 17.7639C112.337 17.7639 112.97 17.5879 113.551 17.2359C114.15 16.8839 114.625 16.3823 114.977 15.7312C115.346 15.08 115.531 14.3056 115.531 13.4081Z" fill="#0B0B2C"/>
<path d="M121.041 13.4081C121.041 11.9297 121.332 10.6186 121.913 9.47464C122.511 8.33069 123.312 7.45073 124.315 6.83476C125.336 6.21879 126.471 5.9108 127.72 5.9108C128.811 5.9108 129.762 6.13079 130.571 6.57077C131.399 7.01075 132.059 7.56513 132.551 8.2339V6.14839H136.274V20.7733H132.551V18.635C132.076 19.3214 131.416 19.8934 130.571 20.3509C129.744 20.7909 128.785 21.0109 127.694 21.0109C126.462 21.0109 125.336 20.6941 124.315 20.0606C123.312 19.427 122.511 18.5382 121.913 17.3943C121.332 16.2327 121.041 14.904 121.041 13.4081ZM132.551 13.4609C132.551 12.5633 132.375 11.7977 132.023 11.1642C131.671 10.513 131.196 10.0202 130.598 9.68583C129.999 9.33385 129.357 9.15785 128.671 9.15785C127.984 9.15785 127.351 9.32505 126.77 9.65943C126.189 9.99382 125.714 10.4866 125.344 11.1378C124.992 11.7713 124.816 12.5281 124.816 13.4081C124.816 14.288 124.992 15.0624 125.344 15.7312C125.714 16.3823 126.189 16.8839 126.77 17.2359C127.368 17.5879 128.002 17.7639 128.671 17.7639C129.357 17.7639 129.999 17.5967 130.598 17.2623C131.196 16.9103 131.671 16.4175 132.023 15.784C132.375 15.1328 132.551 14.3584 132.551 13.4609Z" fill="#0B0B2C"/>
<path d="M147.988 5.9372C149.73 5.9372 151.138 6.49157 152.211 7.60032C153.285 8.69147 153.822 10.2226 153.822 12.1937V20.7733H150.126V12.6953C150.126 11.5337 149.836 10.645 149.255 10.029C148.674 9.39544 147.882 9.07866 146.879 9.07866C145.858 9.07866 145.049 9.39544 144.45 10.029C143.869 10.645 143.579 11.5337 143.579 12.6953V20.7733H139.883V6.14839H143.579V7.96991C144.072 7.33634 144.697 6.84356 145.453 6.49158C146.228 6.12199 147.072 5.9372 147.988 5.9372Z" fill="#0B0B2C"/>
<path d="M171.328 6.14839L162.273 27.6898H158.339L161.507 20.4037L155.647 6.14839H159.791L163.566 16.3647L167.394 6.14839H171.328Z" fill="#0B0B2C"/>
<path d="M10.7343 27.5477C5.09148 27.5477 0.535156 22.9564 0.535156 17.3486C0.535156 11.7408 5.09148 7.14941 10.7343 7.14941C16.3421 7.14941 20.9335 11.7057 20.9335 17.3486C20.8984 22.9564 16.3421 27.5477 10.7343 27.5477Z" fill="#2525B1"/>
<path d="M25.879 0.630859H12.3079C11.4389 0.630859 10.7344 1.33536 10.7344 2.20441V15.7755C10.7344 16.6446 11.4389 17.3491 12.3079 17.3491H25.879C26.7481 17.3491 27.4526 16.6446 27.4526 15.7755V2.20441C27.4526 1.33536 26.7481 0.630859 25.879 0.630859Z" fill="#3434FF"/>
</svg>
