<svg width="155" height="34" viewBox="0 0 155 34" fill="none" xmlns="http://www.w3.org/2000/svg">
<path d="M53.0206 7.40935H48.9577L42.3301 26.3271H45.7328L47.1294 22.1627H54.8489L56.2709 26.3271H59.6735L53.0206 7.40935ZM48.0689 19.3441L50.9891 10.7612L53.9093 19.3441H48.0689ZM67.2274 26.6319C70.1476 26.6319 72.5345 24.9559 73.3471 22.7213L70.7062 21.3755C70.173 22.8737 68.9033 23.8132 67.2274 23.8132C64.9928 23.8132 63.3676 21.9849 63.3676 19.4964C63.3676 16.9571 64.9928 15.1542 67.2274 15.1542C68.8779 15.1542 70.173 16.1192 70.7062 17.5919L73.3471 16.2715C72.5091 13.9607 70.1222 12.3356 67.2274 12.3356C63.1899 12.3356 60.1935 15.3828 60.1935 19.471C60.1935 23.5593 63.2153 26.6319 67.2274 26.6319ZM80.8241 12.3356C78.1071 12.3356 75.8217 13.783 75.0345 15.8652L77.6754 17.1857C78.1833 15.8906 79.3513 15.078 80.8241 15.078C82.3477 15.078 83.3888 15.916 83.3888 17.1857V17.6173L78.8943 18.5823C76.1264 19.1917 74.5267 20.5375 74.5267 22.569C74.5267 24.9051 76.4565 26.6319 79.5037 26.6319C81.1542 26.6319 82.5509 26.0224 83.5666 24.8036V26.3271H86.436V17.1857C86.436 14.3416 84.1506 12.3356 80.8241 12.3356ZM79.8592 24.2195C78.5388 24.2195 77.7008 23.5847 77.7008 22.5436C77.7008 21.7056 78.361 21.0454 79.5037 20.7915L83.3888 19.9281V20.8169C83.3888 22.7467 81.8906 24.2195 79.8592 24.2195ZM99.3904 7.40935V14.1639C98.4255 12.9958 96.8511 12.3356 95.0228 12.3356C91.1631 12.3356 88.1159 15.4335 88.1159 19.4964C88.1159 23.5339 91.1123 26.6319 95.0482 26.6319C96.8765 26.6319 98.527 25.9463 99.5428 24.7274V26.3271H102.438V7.40935H99.3904ZM95.3529 23.8132C92.9914 23.8132 91.29 22.0103 91.29 19.4964C91.29 16.9825 92.9914 15.1542 95.3529 15.1542C97.6891 15.1542 99.3904 16.9825 99.3904 19.4964C99.3904 22.0357 97.6891 23.8132 95.3529 23.8132ZM117.989 18.9886C117.989 15.3574 115.246 12.3356 111.386 12.3356C107.527 12.3356 104.606 15.3574 104.606 19.471C104.606 23.4831 107.476 26.6319 111.615 26.6319C114.408 26.6319 116.643 25.2099 117.481 23.2546L114.967 22.0357C114.357 23.153 113.266 23.9402 111.64 23.9402C109.533 23.9402 107.933 22.5436 107.781 20.3598H117.836C117.938 19.9535 117.989 19.471 117.989 18.9886ZM107.831 17.9982C108.187 15.9922 109.609 14.8749 111.386 14.8749C113.139 14.8749 114.611 16.1699 114.713 17.9982H107.831ZM134.932 12.3356C133.053 12.3356 131.478 13.199 130.666 14.5956C129.803 13.1736 128.304 12.3356 126.476 12.3356C124.825 12.3356 123.505 13.0212 122.794 14.3163V12.6403H119.925V26.3271H122.972V18.2014C122.972 16.2969 124.038 15.1542 125.638 15.1542C127.263 15.1542 128.33 16.2969 128.33 18.2014V26.3271H131.377V18.2014C131.377 16.2969 132.469 15.1542 134.069 15.1542C135.694 15.1542 136.76 16.2969 136.76 18.2014V26.3271H139.807V17.4396C139.807 14.3924 137.776 12.3356 134.932 12.3356ZM151.664 12.6403L147.982 22.3151L144.3 12.6403H140.973L146.356 26.2764L145.899 27.3429C145.544 28.1808 145.087 29.1966 143.335 29.1966C142.801 29.1966 142.141 29.095 141.76 28.9934V31.5581C142.319 31.812 143.03 31.9136 143.766 31.9136C147.22 31.9136 148.286 29.4251 148.896 27.9269L154.99 12.6403H151.664Z" fill="#0B0B2C"/>
<path d="M17 34C26.3888 34 34 26.3888 34 17C34 7.61116 26.3888 0 17 0C7.61116 0 0 7.61116 0 17C0 26.3888 7.61116 34 17 34Z" fill="#3434FF"/>
<path fill-rule="evenodd" clip-rule="evenodd" d="M15.9541 8.3107C16.7804 9.13708 16.7804 10.4769 15.9541 11.3033L11.1966 16.0608C10.3702 16.8871 9.03039 16.8871 8.20401 16.0608C7.37763 15.2344 7.37763 13.8946 8.20401 13.0682L12.9615 8.3107C13.7879 7.48432 15.1277 7.48432 15.9541 8.3107Z" fill="white"/>
<path fill-rule="evenodd" clip-rule="evenodd" d="M24.9144 9.39908C25.7408 10.2255 25.7408 11.5653 24.9144 12.3917L12.2848 25.0213C11.4584 25.8477 10.1186 25.8477 9.29221 25.0213C8.46583 24.1949 8.46583 22.8551 9.29221 22.0287L21.9218 9.39908C22.7482 8.5727 24.088 8.5727 24.9144 9.39908Z" fill="white"/>
<path fill-rule="evenodd" clip-rule="evenodd" d="M26.0031 18.359C26.8295 19.1854 26.8295 20.5252 26.0031 21.3516L21.2452 26.1096C20.4188 26.936 19.079 26.936 18.2526 26.1096C17.4262 25.2832 17.4262 23.9434 18.2526 23.117L23.0106 18.359C23.8369 17.5327 25.1768 17.5327 26.0031 18.359Z" fill="white"/>
</svg>
