<svg width="167" height="28" viewBox="0 0 167 28" fill="none" xmlns="http://www.w3.org/2000/svg">
<path d="M57.9672 14.8209C56.7588 16.7812 55.0402 17.909 52.8113 17.909C49.5889 17.909 47.2258 15.3042 47.2258 11.9475C47.2258 8.59085 49.4815 6.0129 52.865 6.0129C55.0133 6.0129 56.9468 7.22131 57.9135 9.04736L61.0285 6.57683C59.4441 3.7572 56.5708 2.06543 52.9187 2.06543C47.0646 2.06543 42.9561 6.41571 42.9561 11.9475C42.9561 17.4794 47.1452 21.8565 52.865 21.8565C56.4634 21.8565 59.471 19.9499 61.1091 17.2377L57.9672 14.8209Z" fill="#0B0B2C"/>
<path d="M69.6393 7.43614C65.3427 7.43614 62.2545 10.5512 62.2545 14.6329C62.2545 18.6878 65.3427 21.8565 69.6393 21.8565C73.9358 21.8565 77.024 18.6878 77.024 14.6329C77.024 10.5512 73.9358 7.43614 69.6393 7.43614ZM69.6393 11.0614C71.4922 11.0614 72.8885 12.4846 72.8885 14.6329C72.8885 16.7812 71.4922 18.2313 69.6393 18.2313C67.7864 18.2313 66.39 16.7812 66.39 14.6329C66.39 12.4846 67.7864 11.0614 69.6393 11.0614Z" fill="#0B0B2C"/>
<path d="M79.6919 7.75839V21.5343H83.7737V14.3644C83.7737 12.5652 84.7136 11.0345 86.4322 11.0345C87.936 11.0345 88.9027 11.9744 88.9027 13.7736V21.5343H92.9845V14.3644C92.9845 12.5652 93.9243 11.0345 95.643 11.0345C97.1468 11.0345 98.0866 11.9744 98.0866 13.7736V21.5343H102.168V13.156C102.168 9.58443 100.154 7.43614 96.8514 7.43614C94.5151 7.43614 93.1993 8.45658 92.2057 9.85296C91.2658 8.32231 89.762 7.43614 87.6406 7.43614C85.8414 7.43614 84.4987 8.13434 83.6126 9.53072V7.75839H79.6919Z" fill="#0B0B2C"/>
<path d="M112.877 11.0345C114.623 11.0345 116.073 12.4578 116.073 14.6866C116.073 16.8349 114.623 18.2581 112.877 18.2581C111.051 18.2581 109.628 16.8617 109.628 14.6866C109.628 12.4309 111.051 11.0345 112.877 11.0345ZM109.44 7.75839H105.654V26.905H109.736V20.0305C110.595 21.3194 112.233 21.8565 113.71 21.8565C117.469 21.8565 120.182 18.7415 120.182 14.6329C120.182 10.39 117.255 7.43614 113.737 7.43614C112.394 7.43614 110.514 8.00007 109.44 9.66499V7.75839Z" fill="#0B0B2C"/>
<path d="M130 12.968L126.24 13.693C123.34 14.3107 121.756 15.707 121.756 17.7479C121.756 20.1379 123.636 21.8565 126.321 21.8565C128.147 21.8565 129.49 21.0509 130.134 19.8425V21.5343H133.921V12.8606C133.921 9.50387 131.638 7.43614 127.798 7.43614C125.22 7.43614 123.152 8.51028 121.89 10.0409L124.012 12.6189C124.844 11.679 126.026 10.954 127.556 10.954C128.953 10.954 130 11.491 130 12.8606V12.968ZM127.234 18.8221C126.267 18.8221 125.65 18.285 125.65 17.5062C125.65 16.7543 126.187 16.271 127.288 16.083L130.027 15.5459V15.9487C130.027 17.5868 128.926 18.8221 127.234 18.8221Z" fill="#0B0B2C"/>
<path d="M137.359 7.75839V21.5343H141.441V14.3644C141.441 12.5652 142.381 11.0345 144.153 11.0345C145.657 11.0345 146.623 11.9744 146.623 13.7736V21.5343H150.705V13.156C150.705 9.58443 148.664 7.43614 145.361 7.43614C143.508 7.43614 142.166 8.13434 141.28 9.53072V7.75839H137.359Z" fill="#0B0B2C"/>
<path d="M157.37 21.024L157.209 21.4806C156.618 23.4409 155.624 23.79 154.55 23.79C154.094 23.79 153.396 23.7363 152.67 23.3335V26.717C153.288 27.0124 154.174 27.2272 155.141 27.2272C157.746 27.2272 159.411 25.992 160.78 22.6621L166.795 7.75839H162.633L159.411 16.7812L156.215 7.75839H151.945L157.37 21.024Z" fill="#0B0B2C"/>
<path d="M18.4724 0.200195H14.1565C13.7173 0.200195 13.3613 0.556188 13.3613 0.995327V23.8426C13.3613 24.2817 13.7173 24.6377 14.1565 24.6377H18.4724C18.9116 24.6377 19.2676 24.2817 19.2676 23.8426V0.995326C19.2676 0.556188 18.9116 0.200195 18.4724 0.200195Z" fill="#3434FF"/>
<path d="M27.1924 24.6377C29.9651 24.6377 32.2129 22.3899 32.2129 19.6172C32.2129 16.8444 29.9651 14.5967 27.1924 14.5967C24.4196 14.5967 22.1719 16.8444 22.1719 19.6172C22.1719 22.3899 24.4196 24.6377 27.1924 24.6377Z" fill="#1154FF"/>
<path d="M27.1924 10.2412C29.9651 10.2412 32.2129 7.99344 32.2129 5.2207C32.2129 2.44795 29.9651 0.200195 27.1924 0.200195C24.4196 0.200195 22.1719 2.44795 22.1719 5.2207C22.1719 7.99344 24.4196 10.2412 27.1924 10.2412Z" fill="#2525B1"/>
<path d="M5.43749 24.6377C8.21024 24.6377 10.458 22.3899 10.458 19.6172C10.458 16.8444 8.21024 14.5967 5.43749 14.5967C2.66475 14.5967 0.416992 16.8444 0.416992 19.6172C0.416992 22.3899 2.66475 24.6377 5.43749 24.6377Z" fill="#2525B1"/>
</svg>
