<svg width="60" height="32" viewBox="0 0 60 32" fill="none" xmlns="http://www.w3.org/2000/svg">
<rect x="0.5" y="0.5" width="59" height="31" rx="3.5" fill="white" stroke="#ECECF4"/>
<path d="M14.8124 11H11.6978C11.4819 11 11.2969 11.1542 11.266 11.3701L10.0017 19.3416C9.98626 19.4804 10.0788 19.6192 10.2175 19.6346C10.233 19.6346 10.2484 19.6346 10.2638 19.6346H11.744C11.9599 19.6346 12.1449 19.4804 12.1757 19.2645L12.515 17.1213C12.5458 16.9054 12.7308 16.7513 12.9467 16.7513H13.9335C15.9842 16.7513 17.1715 15.7644 17.4799 13.7908C17.6186 12.9274 17.4798 12.2489 17.079 11.7864C16.6472 11.2775 15.8609 11 14.8124 11ZM15.1824 13.9142C15.0128 15.0243 14.1648 15.0243 13.3322 15.0243H12.8696L13.1934 12.9428C13.2088 12.8194 13.3167 12.7269 13.4555 12.7269H13.6714C14.2265 12.7269 14.7661 12.7269 15.0437 13.0507C15.1979 13.2357 15.2441 13.5133 15.1824 13.9142ZM24.11 13.8833H22.6143C22.491 13.8833 22.3831 13.9759 22.3522 14.0992L22.2906 14.5155L22.1826 14.3613C21.8588 13.8988 21.1341 13.7446 20.4249 13.7446C18.775 13.7446 17.3719 14.9935 17.0944 16.7358C16.9556 17.6147 17.1561 18.4473 17.6495 19.0178C18.0966 19.5575 18.7596 19.7734 19.5306 19.7734C20.8566 19.7734 21.5967 18.9253 21.5967 18.9253L21.535 19.3416C21.5196 19.4804 21.6121 19.6192 21.7509 19.6346C21.7663 19.6346 21.7817 19.6346 21.7971 19.6346H23.1386C23.3545 19.6346 23.5395 19.4804 23.5703 19.2645L24.3721 14.1609C24.3875 14.0221 24.295 13.8833 24.1562 13.8679C24.1408 13.8833 24.1254 13.8833 24.11 13.8833ZM22.0438 16.7667C21.9051 17.6147 21.2266 18.1852 20.3632 18.1852C19.9315 18.1852 19.5922 18.0464 19.361 17.7843C19.1451 17.5222 19.0526 17.1521 19.1297 16.7358C19.2684 15.8878 19.9469 15.3019 20.7949 15.3019C21.2112 15.3019 21.5659 15.4406 21.7817 15.7028C22.013 15.9803 22.1055 16.3658 22.0438 16.7667ZM32.0507 13.8833H30.5551C30.4163 13.8833 30.2776 13.9604 30.2005 14.0684L28.1343 17.1059L27.2554 14.1917C27.1938 14.0067 27.0242 13.8833 26.8391 13.8833H25.3743C25.2356 13.8833 25.1122 13.9913 25.1122 14.1455C25.1122 14.1763 25.1122 14.2071 25.1276 14.2226L26.7775 19.0641L25.2356 21.2536C25.1585 21.3769 25.1739 21.5311 25.2972 21.6082C25.3435 21.6391 25.3898 21.6545 25.4514 21.6545H26.9471C27.0858 21.6545 27.2246 21.5928 27.3017 21.4694L32.282 14.2842C32.3591 14.1609 32.3283 14.0067 32.2203 13.9296C32.1432 13.8988 32.097 13.8833 32.0507 13.8833Z" fill="#0D3883"/>
<path d="M37.0002 11H33.8856C33.6697 11 33.4847 11.1542 33.4538 11.3701L32.1895 19.3416C32.1741 19.4804 32.2666 19.6192 32.4053 19.6346C32.4208 19.6346 32.4362 19.6346 32.4516 19.6346H34.0398C34.1939 19.6346 34.3173 19.5267 34.3327 19.3725L34.6873 17.1059C34.7182 16.89 34.9032 16.7358 35.1191 16.7358H36.1059C38.1566 16.7358 39.3439 15.749 39.6522 13.7754C39.791 12.9119 39.6522 12.2335 39.2513 11.7709C38.8196 11.2775 38.0333 11 37.0002 11ZM37.3548 13.9142C37.1852 15.0243 36.3372 15.0243 35.5045 15.0243H35.042L35.3658 12.9428C35.3812 12.8194 35.4891 12.7269 35.6279 12.7269H35.8438C36.3988 12.7269 36.9385 12.7269 37.216 13.0507C37.3702 13.2357 37.4165 13.5133 37.3548 13.9142ZM46.2978 13.8833H44.8022C44.6788 13.8833 44.5709 13.9759 44.54 14.0992L44.4784 14.5155L44.3704 14.3613C44.0466 13.8988 43.3374 13.7446 42.6127 13.7446C40.9628 13.7446 39.5597 14.9935 39.2822 16.7358C39.1434 17.6147 39.3439 18.4473 39.8373 19.0178C40.2844 19.5575 40.9474 19.7734 41.7184 19.7734C43.0444 19.7734 43.7845 18.9253 43.7845 18.9253L43.7228 19.3416C43.7074 19.4804 43.7999 19.6192 43.9387 19.6346C43.9541 19.6346 43.9695 19.6346 43.9849 19.6346H45.3264C45.5423 19.6346 45.7273 19.4804 45.7581 19.2645L46.5599 14.1609C46.5753 14.0221 46.4828 13.8833 46.344 13.8679C46.3132 13.8833 46.2978 13.8833 46.2978 13.8833ZM44.2162 16.7667C44.0775 17.6147 43.399 18.1852 42.5356 18.1852C42.1038 18.1852 41.7646 18.0464 41.5333 17.7843C41.3175 17.5222 41.225 17.1521 41.3021 16.7358C41.4408 15.8878 42.1193 15.3019 42.9673 15.3019C43.3836 15.3019 43.7382 15.4406 43.9541 15.7028C44.1854 15.9803 44.2779 16.3658 44.2162 16.7667ZM48.0401 11.2159L46.7604 19.3416C46.7449 19.4804 46.8374 19.6192 46.9762 19.6346C46.9916 19.6346 47.0071 19.6346 47.0225 19.6346H48.3022C48.5181 19.6346 48.7031 19.4804 48.734 19.2645L49.9983 11.293C50.0137 11.1542 49.9212 11.0154 49.7825 11C49.767 11 49.7516 11 49.7362 11H48.3022C48.1789 11 48.071 11.0925 48.0401 11.2159Z" fill="#029CDA"/>
</svg>
