<svg width="182" height="29" viewBox="0 0 182 29" fill="none" xmlns="http://www.w3.org/2000/svg">
<path d="M19.617 0C18.7439 0 17.8885 0.0808113 17.0606 0.23455C23.4999 1.43489 28.3742 7.0838 28.3742 13.87C28.3742 18.7068 24.4539 22.6272 19.617 22.6272C14.7802 22.6272 10.8599 18.7068 10.8599 13.87C10.8599 9.93978 13.4478 6.6147 17.0133 5.50699L17.0212 5.48137C16.2249 5.24288 15.3794 5.11476 14.5042 5.11476C9.6674 5.11476 5.74707 9.03509 5.74707 13.8719C5.74707 21.5332 11.9577 27.7419 19.617 27.7419C27.2783 27.7419 33.487 21.5313 33.487 13.8719C33.487 6.21064 27.2764 0 19.617 0Z" fill="#2525B1"/>
<path d="M14.5399 0.000976562C6.88056 0.000976562 0.669922 6.21162 0.669922 13.8709C0.669922 21.5322 6.88056 27.7409 14.5399 27.7409C15.413 27.7409 16.2685 27.6601 17.0963 27.5064C10.657 26.306 5.78271 20.6571 5.78271 13.8709C5.78271 9.0341 9.70304 5.11377 14.5399 5.11377C19.3767 5.11377 23.2971 9.0341 23.2971 13.8709C23.2971 17.8011 20.7091 21.1262 17.1436 22.2339L17.1357 22.2595C17.932 22.498 18.7776 22.6262 19.6527 22.6262C24.4895 22.6262 28.4099 18.7058 28.4099 13.869C28.4118 6.21162 22.2012 0.000976562 14.5399 0.000976562Z" fill="#3434FF"/>
<path d="M59.7637 16.148C59.5728 16.9595 59.2506 17.747 58.7972 18.5107C58.3438 19.2505 57.7829 19.9187 57.1147 20.5153C56.4465 21.0881 55.6828 21.5534 54.8237 21.9114C53.9646 22.2455 53.0458 22.4126 52.0673 22.4126C50.9457 22.4126 49.8837 22.1978 48.8814 21.7682C47.9029 21.3148 47.0319 20.7062 46.2682 19.9425C45.5284 19.1789 44.9318 18.2959 44.4783 17.2936C44.0488 16.2674 43.834 15.1696 43.834 14.0002C43.834 12.8308 44.0488 11.745 44.4783 10.7427C44.9318 9.7165 45.5284 8.82157 46.2682 8.05789C47.0319 7.29422 47.9029 6.6976 48.8814 6.26804C49.8837 5.81461 50.9457 5.58789 52.0673 5.58789C53.0458 5.58789 53.9646 5.76688 54.8237 6.12485C55.6828 6.45895 56.4465 6.92432 57.1147 7.52094C57.7829 8.09369 58.3438 8.7619 58.7972 9.52558C59.2506 10.2654 59.5728 11.041 59.7637 11.8524H55.647C55.4561 11.4228 55.1936 11.041 54.8595 10.7069C54.5731 10.4205 54.2032 10.158 53.7498 9.91935C53.2964 9.65683 52.7355 9.52558 52.0673 9.52558C50.898 9.52558 49.9195 9.93128 49.132 10.7427C48.3444 11.5541 47.9507 12.6399 47.9507 14.0002C47.9507 15.3605 48.3444 16.4464 49.132 17.2578C49.9195 18.0692 50.898 18.4749 52.0673 18.4749C52.7355 18.4749 53.2964 18.3555 53.7498 18.1169C54.2032 17.8782 54.5731 17.6157 54.8595 17.3294C55.1936 16.9952 55.4561 16.6015 55.647 16.148H59.7637Z" fill="#0B0B2C"/>
<path d="M66.5652 14.0002C66.5652 15.3605 66.9589 16.4464 67.7465 17.2578C68.534 18.0692 69.5125 18.4749 70.6819 18.4749C71.8512 18.4749 72.8297 18.0692 73.6172 17.2578C74.4048 16.4464 74.7985 15.3605 74.7985 14.0002C74.7985 12.6399 74.4048 11.5541 73.6172 10.7427C72.8297 9.93128 71.8512 9.52558 70.6819 9.52558C69.5125 9.52558 68.534 9.93128 67.7465 10.7427C66.9589 11.5541 66.5652 12.6399 66.5652 14.0002ZM78.9152 14.0002C78.9152 15.1696 78.6885 16.2674 78.235 17.2936C77.8055 18.2959 77.2089 19.1789 76.4452 19.9425C75.7054 20.7062 74.8343 21.3148 73.832 21.7682C72.8535 22.1978 71.8035 22.4126 70.6819 22.4126C69.5602 22.4126 68.4982 22.1978 67.4959 21.7682C66.5174 21.3148 65.6464 20.7062 64.8827 19.9425C64.1429 19.1789 63.5463 18.2959 63.0929 17.2936C62.6633 16.2674 62.4485 15.1696 62.4485 14.0002C62.4485 12.8308 62.6633 11.745 63.0929 10.7427C63.5463 9.7165 64.1429 8.82157 64.8827 8.05789C65.6464 7.29422 66.5174 6.6976 67.4959 6.26804C68.4982 5.81461 69.5602 5.58789 70.6819 5.58789C71.8035 5.58789 72.8535 5.81461 73.832 6.26804C74.8343 6.6976 75.7054 7.29422 76.4452 8.05789C77.2089 8.82157 77.8055 9.7165 78.235 10.7427C78.6885 11.745 78.9152 12.8308 78.9152 14.0002Z" fill="#0B0B2C"/>
<path d="M90.3535 5.58789C91.1888 5.58789 91.9047 5.70721 92.5013 5.94586C93.098 6.16065 93.5872 6.39929 93.969 6.6618C94.3986 6.97205 94.7446 7.33002 95.0071 7.73572C95.389 7.33002 95.8305 6.97205 96.3316 6.6618C96.7612 6.39929 97.2743 6.16065 97.8709 5.94586C98.4675 5.70721 99.1238 5.58789 99.8398 5.58789C101.63 5.58789 103.061 6.16064 104.135 7.30615C105.209 8.45166 105.746 10.1461 105.746 12.3894V22.2336H101.63V12.7473C101.63 11.745 101.355 10.9575 100.806 10.3847C100.281 9.81195 99.6608 9.52558 98.9448 9.52558C98.2289 9.52558 97.5965 9.81195 97.0476 10.3847C96.5225 10.9575 96.26 11.745 96.26 12.7473V22.2336H92.1434V12.7473C92.1434 11.745 91.8689 10.9575 91.32 10.3847C90.795 9.81195 90.1745 9.52558 89.4586 9.52558C88.7426 9.52558 88.1102 9.81195 87.5613 10.3847C87.0363 10.9575 86.7738 11.745 86.7738 12.7473V22.2336H82.6571V5.76688H85.6999L86.4158 7.37775C86.7499 7.04364 87.1198 6.74533 87.5255 6.48282C87.8596 6.26804 88.2653 6.06519 88.7426 5.87427C89.2199 5.68335 89.7569 5.58789 90.3535 5.58789Z" fill="#0B0B2C"/>
<path d="M118.633 5.58789C119.659 5.58789 120.638 5.80267 121.569 6.23224C122.499 6.63794 123.311 7.22263 124.003 7.9863C124.719 8.72611 125.28 9.6091 125.685 10.6353C126.115 11.6615 126.33 12.7831 126.33 14.0002C126.33 15.2173 126.115 16.339 125.685 17.3652C125.28 18.3913 124.719 19.2863 124.003 20.0499C123.311 20.7897 122.499 21.3744 121.569 21.804C120.638 22.2097 119.659 22.4126 118.633 22.4126C117.941 22.4126 117.333 22.329 116.808 22.162C116.306 21.9949 115.865 21.8159 115.483 21.625C115.054 21.3864 114.672 21.1119 114.338 20.8017V27.9611H110.221V5.76688H113.264L113.98 7.37775C114.338 7.04364 114.755 6.74533 115.233 6.48282C115.638 6.26804 116.127 6.06519 116.7 5.87427C117.273 5.68335 117.917 5.58789 118.633 5.58789ZM113.98 14.0002C113.98 15.3605 114.373 16.4464 115.161 17.2578C115.948 18.0692 116.927 18.4749 118.096 18.4749C119.266 18.4749 120.244 18.0692 121.032 17.2578C121.819 16.4464 122.213 15.3605 122.213 14.0002C122.213 12.6399 121.819 11.5541 121.032 10.7427C120.244 9.93128 119.266 9.52558 118.096 9.52558C116.927 9.52558 115.948 9.93128 115.161 10.7427C114.373 11.5541 113.98 12.6399 113.98 14.0002Z" fill="#0B0B2C"/>
<path d="M136.895 5.58789C137.826 5.58789 138.685 5.75494 139.473 6.08905C140.26 6.39929 140.94 6.84079 141.513 7.41354C142.086 7.9863 142.527 8.66645 142.838 9.45398C143.172 10.2415 143.339 11.1007 143.339 12.0314V22.2336H140.296L139.58 20.6227C139.198 20.9568 138.781 21.2551 138.327 21.5176C137.922 21.7563 137.432 21.9711 136.86 22.162C136.287 22.329 135.642 22.4126 134.927 22.4126C133.137 22.4126 131.764 21.983 130.81 21.1239C129.855 20.2409 129.378 19.1192 129.378 17.7589C129.378 16.9475 129.533 16.2077 129.843 15.5395C130.177 14.8474 130.726 14.2627 131.49 13.7854C132.254 13.2843 133.256 12.9024 134.497 12.6399C135.762 12.3536 137.337 12.2104 139.222 12.2104C139.222 11.3035 138.972 10.5995 138.47 10.0983C137.993 9.59717 137.349 9.34659 136.537 9.34659C135.989 9.34659 135.547 9.44205 135.213 9.63297C134.903 9.82389 134.652 10.0267 134.461 10.2415C134.246 10.504 134.103 10.8023 134.032 11.1364H129.915C130.01 10.3728 130.225 9.65683 130.559 8.98862C130.917 8.32041 131.395 7.73572 131.991 7.23456C132.588 6.7334 133.292 6.33963 134.103 6.05325C134.938 5.74301 135.869 5.58789 136.895 5.58789ZM135.642 19.1908C136.716 19.1908 137.576 18.8806 138.22 18.2601C138.888 17.6157 139.222 16.7924 139.222 15.7901V15.0741C138.005 15.0741 137.027 15.1338 136.287 15.2531C135.547 15.3486 134.962 15.5037 134.533 15.7185C134.127 15.9094 133.853 16.148 133.709 16.4344C133.566 16.7208 133.495 17.043 133.495 17.4009C133.495 17.8544 133.698 18.272 134.103 18.6539C134.509 19.0118 135.022 19.1908 135.642 19.1908Z" fill="#0B0B2C"/>
<path d="M156.212 5.58789C157.19 5.58789 158.085 5.75494 158.897 6.08905C159.708 6.39929 160.4 6.86466 160.973 7.48514C161.57 8.08176 162.023 8.80963 162.333 9.66877C162.667 10.5279 162.834 11.4944 162.834 12.5683V22.2336H158.718V13.1053C158.718 12.0314 158.396 11.1722 157.751 10.5279C157.131 9.85968 156.319 9.52558 155.317 9.52558C154.315 9.52558 153.491 9.85968 152.847 10.5279C152.226 11.1722 151.916 12.0314 151.916 13.1053V22.2336H147.8V5.76688H150.842L151.558 7.37775C151.964 7.04364 152.405 6.74533 152.883 6.48282C153.288 6.26804 153.766 6.06519 154.315 5.87427C154.887 5.68335 155.52 5.58789 156.212 5.58789Z" fill="#0B0B2C"/>
<path d="M165.533 5.76688H169.829L173.945 16.506L177.704 5.76688H182C180.83 8.77384 179.768 11.4944 178.814 13.9286C178.408 14.9787 178.002 16.0049 177.597 17.0072C177.215 18.0095 176.869 18.9283 176.559 19.7636C176.248 20.575 175.986 21.2551 175.771 21.804C175.556 22.3529 175.425 22.6751 175.377 22.7705C174.972 23.749 174.566 24.5723 174.16 25.2405C173.778 25.9326 173.361 26.4934 172.907 26.923C172.454 27.3526 171.965 27.6628 171.44 27.8537C170.915 28.0446 170.318 28.1401 169.65 28.1401C169.459 28.1401 169.268 28.1282 169.077 28.1043C168.91 28.1043 168.767 28.0924 168.647 28.0685C168.48 28.0446 168.337 28.0088 168.218 27.9611V24.5604C169.125 24.5604 169.817 24.3575 170.294 23.9518C170.795 23.5461 171.177 23.033 171.44 22.4126L171.798 21.5176L165.533 5.76688Z" fill="#0B0B2C"/>
</svg>
