<svg width="60" height="32" viewBox="0 0 60 32" fill="none" xmlns="http://www.w3.org/2000/svg">
<rect x="0.5" y="0.5" width="59" height="31" rx="3.5" fill="white" stroke="#ECECF4"/>
<path fill-rule="evenodd" clip-rule="evenodd" d="M48.0239 16.2502C48.0239 13.6868 46.7823 11.6641 44.4091 11.6641C42.0259 11.6641 40.584 13.6868 40.584 16.2302C40.584 19.2442 42.2863 20.7662 44.7295 20.7662C45.9211 20.7662 46.8223 20.4959 47.5032 20.1154V18.1127C46.8223 18.4531 46.0413 18.6634 45.0499 18.6634C44.0787 18.6634 43.2175 18.323 43.1074 17.1414H48.0039C48.0039 17.0112 48.0239 16.4905 48.0239 16.2502V16.2502ZM43.0773 15.2989C43.0773 14.1674 43.7682 13.6968 44.3991 13.6968C45.0099 13.6968 45.6608 14.1674 45.6608 15.2989H43.0773Z" fill="#645BFF"/>
<path fill-rule="evenodd" clip-rule="evenodd" d="M36.7188 11.6641C35.7375 11.6641 35.1067 12.1247 34.7562 12.4451L34.626 11.8243H32.4231V23.4999L34.9264 22.9692L34.9365 20.1354C35.2969 20.3957 35.8276 20.7662 36.7088 20.7662C38.5012 20.7662 40.1334 19.3243 40.1334 16.1501C40.1234 13.2462 38.4712 11.6641 36.7188 11.6641V11.6641ZM36.118 18.5633C35.5272 18.5633 35.1768 18.353 34.9365 18.0927L34.9264 14.3777C35.1868 14.0873 35.5473 13.887 36.118 13.887C37.0292 13.887 37.6601 14.9084 37.6601 16.2201C37.6601 17.5619 37.0393 18.5633 36.118 18.5633V18.5633Z" fill="#645BFF"/>
<path fill-rule="evenodd" clip-rule="evenodd" d="M31.4919 10.5327V8.5L28.9785 9.03071V11.0734L31.4919 10.5327Z" fill="#645BFF"/>
<path d="M31.4919 11.8345H28.9785V20.5962H31.4919V11.8345Z" fill="#645BFF"/>
<path fill-rule="evenodd" clip-rule="evenodd" d="M26.285 12.5755L26.1248 11.8345H23.9619V20.5962H26.4653V14.6582C27.056 13.8872 28.0574 14.0274 28.3678 14.1375V11.8345C28.0474 11.7143 26.8758 11.494 26.285 12.5755Z" fill="#645BFF"/>
<path fill-rule="evenodd" clip-rule="evenodd" d="M21.2782 9.66162L18.835 10.1823L18.825 18.203C18.825 19.685 19.9364 20.7765 21.4184 20.7765C22.2395 20.7765 22.8403 20.6263 23.1708 20.446V18.4133C22.8503 18.5435 21.2682 19.0041 21.2682 17.5221V13.9674H23.1708V11.8345H21.2682L21.2782 9.66162Z" fill="#645BFF"/>
<path fill-rule="evenodd" clip-rule="evenodd" d="M14.5092 14.3777C14.5092 13.9872 14.8296 13.837 15.3604 13.837C16.1214 13.837 17.0827 14.0673 17.8437 14.4778V12.1247C17.0126 11.7942 16.1915 11.6641 15.3604 11.6641C13.3276 11.6641 11.9758 12.7255 11.9758 14.4978C11.9758 17.2615 15.7809 16.821 15.7809 18.0125C15.7809 18.4732 15.3804 18.6234 14.8196 18.6234C13.9885 18.6234 12.9271 18.2829 12.086 17.8223V20.2055C13.0172 20.606 13.9585 20.7762 14.8196 20.7762C16.9024 20.7762 18.3343 19.7449 18.3343 17.9525C18.3243 14.9685 14.5092 15.4992 14.5092 14.3777Z" fill="#645BFF"/>
</svg>
