<svg width="192" height="28" viewBox="0 0 192 28" fill="none" xmlns="http://www.w3.org/2000/svg">
<path d="M67.2725 21.4446C65.7364 21.4446 64.3821 21.1111 63.2098 20.444C62.0375 19.777 61.1077 18.8472 60.4204 17.6547C59.7534 16.4622 59.4199 15.0978 59.4199 13.5616C59.4199 12.0255 59.7534 10.6611 60.4204 9.46858C61.1077 8.27604 62.0375 7.34625 63.2098 6.67924C64.3821 6.01222 65.7364 5.67871 67.2725 5.67871C69.1927 5.67871 70.8097 6.18403 72.1236 7.19466C73.4374 8.18508 74.2762 9.55954 74.64 11.318H70.547C70.3449 10.5904 69.9406 10.0244 69.3342 9.62018C68.7481 9.19571 68.0507 8.98348 67.2422 8.98348C66.1709 8.98348 65.2614 9.38773 64.5135 10.1962C63.7656 11.0047 63.3917 12.1265 63.3917 13.5616C63.3917 14.9967 63.7656 16.1185 64.5135 16.927C65.2614 17.7356 66.1709 18.1398 67.2422 18.1398C68.0507 18.1398 68.7481 17.9377 69.3342 17.5334C69.9406 17.1292 70.3449 16.5531 70.547 15.8052H74.64C74.2762 17.5031 73.4374 18.8675 72.1236 19.8983C70.8097 20.9292 69.1927 21.4446 67.2725 21.4446Z" fill="#0B0B2C"/>
<path d="M84.6941 21.4446C83.2388 21.4446 81.925 21.1111 80.7526 20.444C79.6005 19.777 78.6808 18.8574 77.9936 17.685C77.3266 16.4925 76.9931 15.118 76.9931 13.5616C76.9931 12.0053 77.3367 10.6409 78.0239 9.46858C78.7112 8.27604 79.6308 7.34625 80.7829 6.67924C81.9553 6.01222 83.2691 5.67871 84.7244 5.67871C86.1595 5.67871 87.4531 6.01222 88.6052 6.67924C89.7776 7.34625 90.6973 8.27604 91.3643 9.46858C92.0515 10.6409 92.3951 12.0053 92.3951 13.5616C92.3951 15.118 92.0515 16.4925 91.3643 17.685C90.6973 18.8574 89.7776 19.777 88.6052 20.444C87.4329 21.1111 86.1292 21.4446 84.6941 21.4446ZM84.6941 18.0792C85.7047 18.0792 86.584 17.7052 87.3318 16.9574C88.0797 16.1893 88.4536 15.0574 88.4536 13.5616C88.4536 12.0659 88.0797 10.9441 87.3318 10.1962C86.584 9.42816 85.7148 9.04412 84.7244 9.04412C83.6936 9.04412 82.8042 9.42816 82.0563 10.1962C81.3287 10.9441 80.9649 12.0659 80.9649 13.5616C80.9649 15.0574 81.3287 16.1893 82.0563 16.9574C82.8042 17.7052 83.6835 18.0792 84.6941 18.0792Z" fill="#0B0B2C"/>
<path d="M95.2586 21.0807V6.04254H98.6846L99.0182 8.07391C99.5033 7.34625 100.14 6.77019 100.928 6.34573C101.737 5.90105 102.667 5.67871 103.718 5.67871C106.042 5.67871 107.689 6.57817 108.66 8.3771C109.205 7.54838 109.933 6.89147 110.843 6.40636C111.772 5.92126 112.783 5.67871 113.874 5.67871C115.835 5.67871 117.341 6.26488 118.392 7.43721C119.443 8.60954 119.969 10.3276 119.969 12.5914V21.0807H116.088V12.9553C116.088 11.6617 115.835 10.6712 115.33 9.984C114.845 9.29677 114.087 8.95316 113.056 8.95316C112.005 8.95316 111.156 9.3372 110.509 10.1053C109.882 10.8734 109.569 11.9446 109.569 13.3191V21.0807H105.688V12.9553C105.688 11.6617 105.436 10.6712 104.93 9.984C104.425 9.29677 103.647 8.95316 102.596 8.95316C101.565 8.95316 100.726 9.3372 100.079 10.1053C99.4527 10.8734 99.1394 11.9446 99.1394 13.3191V21.0807H95.2586Z" fill="#0B0B2C"/>
<path d="M123.047 27.7509V6.04254H126.503L126.927 8.19518C127.413 7.52817 128.049 6.942 128.838 6.43668C129.646 5.93137 130.687 5.67871 131.96 5.67871C133.375 5.67871 134.639 6.02233 135.75 6.70956C136.862 7.39679 137.741 8.33667 138.388 9.52922C139.035 10.7218 139.358 12.076 139.358 13.592C139.358 15.1079 139.035 16.4622 138.388 17.6547C137.741 18.827 136.862 19.7568 135.75 20.444C134.639 21.1111 133.375 21.4446 131.96 21.4446C130.829 21.4446 129.838 21.2323 128.989 20.8079C128.14 20.3834 127.453 19.7871 126.927 19.0191V27.7509H123.047ZM131.142 18.0489C132.375 18.0489 133.396 17.6345 134.204 16.8058C135.013 15.9771 135.417 14.9058 135.417 13.592C135.417 12.2781 135.013 11.1968 134.204 10.3478C133.396 9.4989 132.375 9.07443 131.142 9.07443C129.889 9.07443 128.858 9.4989 128.049 10.3478C127.261 11.1766 126.867 12.2478 126.867 13.5616C126.867 14.8755 127.261 15.9568 128.049 16.8058C128.858 17.6345 129.889 18.0489 131.142 18.0489Z" fill="#0B0B2C"/>
<path d="M147.403 21.4446C146.11 21.4446 145.048 21.2424 144.22 20.8382C143.391 20.4137 142.774 19.8579 142.37 19.1707C141.966 18.4834 141.764 17.7254 141.764 16.8967C141.764 15.5021 142.31 14.3701 143.401 13.501C144.493 12.6319 146.13 12.1973 148.313 12.1973H152.133V11.8335C152.133 10.8026 151.84 10.0446 151.254 9.55954C150.668 9.07444 149.94 8.83188 149.071 8.83188C148.282 8.83188 147.595 9.0239 147.009 9.40794C146.423 9.77177 146.059 10.3175 145.918 11.0452H142.128C142.229 9.95369 142.593 9.00369 143.219 8.19518C143.866 7.38668 144.695 6.77019 145.705 6.34573C146.716 5.90105 147.848 5.67871 149.101 5.67871C151.244 5.67871 152.931 6.21435 154.164 7.28562C155.397 8.35689 156.014 9.87284 156.014 11.8335V21.0807H152.709L152.345 18.6552C151.901 19.4637 151.274 20.1308 150.465 20.6563C149.677 21.1818 148.656 21.4446 147.403 21.4446ZM148.282 18.4127C149.394 18.4127 150.253 18.0488 150.86 17.3212C151.486 16.5935 151.88 15.6941 152.042 14.6228H148.737C147.706 14.6228 146.969 14.8148 146.524 15.1989C146.079 15.5627 145.857 16.0175 145.857 16.5632C145.857 17.1494 146.079 17.6042 146.524 17.9276C146.969 18.251 147.555 18.4127 148.282 18.4127Z" fill="#0B0B2C"/>
<path d="M159.111 21.0807V6.04254H162.537L162.84 8.58933C163.305 7.69997 163.972 6.99253 164.841 6.467C165.73 5.94147 166.771 5.67871 167.964 5.67871C169.824 5.67871 171.269 6.26488 172.3 7.43721C173.33 8.60954 173.846 10.3276 173.846 12.5914V21.0807H169.965V12.9553C169.965 11.6617 169.702 10.6712 169.177 9.984C168.651 9.29677 167.833 8.95316 166.721 8.95316C165.629 8.95316 164.73 9.3372 164.022 10.1053C163.335 10.8734 162.992 11.9446 162.992 13.3191V21.0807H159.111Z" fill="#0B0B2C"/>
<path d="M178.327 27.7509L181.814 20.0802H180.904L175.052 6.04254H179.267L183.481 16.6239L187.877 6.04254H192.001L182.45 27.7509H178.327Z" fill="#0B0B2C"/>
<path d="M15.1026 25.2231C14.1355 26.1901 12.5673 26.1888 11.6019 25.2201L1.74283 15.3271C0.779806 14.3608 0.781147 12.7971 1.74582 11.8325L11.6049 1.97336C12.5696 1.00869 14.1332 1.00735 15.0996 1.97036L24.9925 11.8295C25.9612 12.7948 25.9626 14.3631 24.9955 15.3301L15.1026 25.2231Z" fill="#3434FF"/>
<path d="M28.496 25.2181C27.5307 26.1868 25.9624 26.1881 24.9954 25.2211L15.1024 15.3282C14.1354 14.3611 14.1367 12.7929 15.1054 11.8275L24.9984 1.96841C25.9647 1.00539 27.5284 1.00673 28.493 1.97141L38.3521 11.8305C39.3168 12.7952 39.3181 14.3588 38.3551 15.3251L28.496 25.2181Z" fill="#2525B1"/>
<path d="M38.4247 25.22C37.4585 26.1877 35.8904 26.1877 34.9243 25.22L25.0465 15.3268C24.0813 14.3601 24.0827 12.7939 25.0495 11.8289L34.9273 1.96952C35.8927 1.00585 37.4562 1.00585 38.4217 1.96953L48.2994 11.8289C49.2662 12.7939 49.2676 14.3601 48.3024 15.3268L38.4247 25.22Z" fill="#3434FF"/>
</svg>
