<svg width="26" height="27" viewBox="0 0 26 27" fill="none" xmlns="http://www.w3.org/2000/svg">
<path d="M5.95386 20.8105H17.2038C17.6056 20.8106 17.9945 20.6743 18.3014 20.4258C18.6084 20.1774 18.8137 19.8329 18.8809 19.4532L21.8712 2.60928C21.9387 2.22985 22.1441 1.88554 22.451 1.63732C22.758 1.38911 23.1467 1.25299 23.5483 1.25307H24.6641" stroke="#202058" stroke-width="1.5" stroke-linecap="round" stroke-linejoin="round"/>
<path d="M16.5844 24.438C16.6685 24.438 16.7507 24.4619 16.8207 24.5067C16.8906 24.5515 16.9451 24.6151 16.9773 24.6896C17.0095 24.764 17.0179 24.846 17.0015 24.925C16.9851 25.0041 16.9446 25.0767 16.8851 25.1337C16.8256 25.1907 16.7499 25.2295 16.6674 25.2452C16.5849 25.2609 16.4994 25.2529 16.4217 25.222C16.344 25.1912 16.2776 25.139 16.2308 25.0719C16.1841 25.0049 16.1592 24.9261 16.1592 24.8455C16.1592 24.7375 16.204 24.6338 16.2837 24.5574C16.3635 24.481 16.4716 24.438 16.5844 24.438" stroke="#202058" stroke-width="2" stroke-linecap="round" stroke-linejoin="round"/>
<path d="M8.08002 24.438C8.16412 24.438 8.24634 24.4619 8.31627 24.5067C8.38619 24.5515 8.4407 24.6151 8.47288 24.6896C8.50507 24.764 8.51349 24.846 8.49708 24.925C8.48067 25.0041 8.44017 25.0767 8.3807 25.1337C8.32123 25.1907 8.24546 25.2295 8.16298 25.2452C8.08049 25.2609 7.99499 25.2529 7.91729 25.222C7.83959 25.1912 7.77318 25.139 7.72645 25.0719C7.67972 25.0049 7.65479 24.9261 7.65479 24.8455C7.65479 24.7375 7.69959 24.6338 7.77933 24.5574C7.85908 24.481 7.96724 24.438 8.08002 24.438" stroke="#202058" stroke-width="2" stroke-linecap="round" stroke-linejoin="round"/>
<path d="M19.5078 15.9203H5.81981C5.06128 15.9203 4.32454 15.6772 3.72666 15.2299C3.12878 14.7825 2.70407 14.1565 2.52 13.4513L0.875762 7.14845C0.844387 7.02824 0.842023 6.90277 0.868849 6.78156C0.895676 6.66035 0.950986 6.5466 1.03058 6.44895C1.11017 6.3513 1.21194 6.27233 1.32816 6.21804C1.44438 6.16375 1.57199 6.13557 1.70128 6.13564H21.2439" stroke="#202058" stroke-width="1.5" stroke-linecap="round" stroke-linejoin="round"/>
</svg>
