<svg width="170" height="28" viewBox="0 0 170 28" fill="none" xmlns="http://www.w3.org/2000/svg">
<path d="M21.1761 12.0829C17.5782 12.0829 14.6577 9.17357 14.6577 5.59791C14.6577 5.13153 14.7133 4.68734 14.8021 4.24316H6.14057C2.78701 4.24316 0.0664062 6.95266 0.0664062 10.284V21.4441C0.0664062 24.7865 2.78701 27.4849 6.14057 27.4849H17.3561C20.7208 27.4849 23.4303 24.7754 23.4303 21.4441V11.6721C22.7418 11.9275 21.9756 12.0829 21.1761 12.0829Z" fill="#3434FF"/>
<path d="M23.441 21.4441V11.6721C22.7415 11.9275 21.9752 12.0829 21.1868 12.0829C17.589 12.0829 14.6685 9.17357 14.6685 5.59791C14.6685 5.13153 14.724 4.68734 14.8128 4.24316H6.15132C2.81996 4.24316 0.121566 6.90825 0.0771484 10.2174C8.0724 13.5154 16.2897 17.5242 23.3966 22.2103C23.4188 21.9549 23.441 21.6995 23.441 21.4441Z" fill="#3434FF"/>
<path d="M21.6755 9.84266C24.285 9.84266 26.3949 7.74391 26.3949 5.14545C26.3949 2.5581 24.285 0.448242 21.6755 0.448242C19.0659 0.448242 16.9561 2.54699 16.9561 5.14545C16.9561 7.7328 19.0659 9.84266 21.6755 9.84266Z" fill="#2525B1"/>
<path d="M50.2684 15.8178C50.0826 16.6072 49.7692 17.3734 49.3281 18.1164C48.8869 18.8361 48.3413 19.4862 47.6912 20.0667C47.0411 20.6239 46.2981 21.0767 45.4623 21.4249C44.6265 21.75 43.7326 21.9125 42.7806 21.9125C41.6894 21.9125 40.6562 21.7035 39.6811 21.2856C38.7291 20.8445 37.8817 20.2524 37.1387 19.5095C36.419 18.7665 35.8385 17.9074 35.3974 16.9323C34.9795 15.9339 34.7705 14.8659 34.7705 13.7282C34.7705 12.5906 34.9795 11.5341 35.3974 10.559C35.8385 9.56063 36.419 8.68996 37.1387 7.94699C37.8817 7.20402 38.7291 6.62357 39.6811 6.20565C40.6562 5.76451 41.6894 5.54395 42.7806 5.54395C43.7326 5.54395 44.6265 5.71808 45.4623 6.06635C46.2981 6.3914 47.0411 6.84414 47.6912 7.42459C48.3413 7.98182 48.8869 8.63191 49.3281 9.37488C49.7692 10.0946 50.0826 10.8492 50.2684 11.6386H46.2633C46.0776 11.2207 45.8222 10.8492 45.4971 10.5242C45.2185 10.2456 44.8586 9.99016 44.4175 9.75798C43.9764 9.50258 43.4307 9.37488 42.7806 9.37488C41.643 9.37488 40.691 9.76959 39.9249 10.559C39.1587 11.3484 38.7756 12.4048 38.7756 13.7282C38.7756 15.0516 39.1587 16.108 39.9249 16.8975C40.691 17.6869 41.643 18.0816 42.7806 18.0816C43.4307 18.0816 43.9764 17.9655 44.4175 17.7333C44.8586 17.5011 45.2185 17.2457 45.4971 16.9671C45.8222 16.6421 46.0776 16.259 46.2633 15.8178H50.2684Z" fill="#0B0B2C"/>
<path d="M56.8855 13.7282C56.8855 15.0516 57.2686 16.108 58.0347 16.8975C58.8009 17.6869 59.7529 18.0816 60.8905 18.0816C62.0282 18.0816 62.9801 17.6869 63.7463 16.8975C64.5125 16.108 64.8956 15.0516 64.8956 13.7282C64.8956 12.4048 64.5125 11.3484 63.7463 10.559C62.9801 9.76959 62.0282 9.37488 60.8905 9.37488C59.7529 9.37488 58.8009 9.76959 58.0347 10.559C57.2686 11.3484 56.8855 12.4048 56.8855 13.7282ZM68.9007 13.7282C68.9007 14.8659 68.6801 15.9339 68.239 16.9323C67.821 17.9074 67.2406 18.7665 66.4976 19.5095C65.7779 20.2524 64.9304 20.8445 63.9553 21.2856C63.0034 21.7035 61.9818 21.9125 60.8905 21.9125C59.7993 21.9125 58.7661 21.7035 57.791 21.2856C56.839 20.8445 55.9916 20.2524 55.2486 19.5095C54.5289 18.7665 53.9484 17.9074 53.5073 16.9323C53.0894 15.9339 52.8804 14.8659 52.8804 13.7282C52.8804 12.5906 53.0894 11.5341 53.5073 10.559C53.9484 9.56063 54.5289 8.68996 55.2486 7.94699C55.9916 7.20402 56.839 6.62357 57.791 6.20565C58.7661 5.76451 59.7993 5.54395 60.8905 5.54395C61.9818 5.54395 63.0034 5.76451 63.9553 6.20565C64.9304 6.62357 65.7779 7.20402 66.4976 7.94699C67.2406 8.68996 67.821 9.56063 68.239 10.559C68.6801 11.5341 68.9007 12.5906 68.9007 13.7282Z" fill="#0B0B2C"/>
<path d="M80.0289 5.54395C80.8415 5.54395 81.5381 5.66003 82.1185 5.89221C82.6989 6.10117 83.1749 6.33335 83.5464 6.58875C83.9643 6.89058 84.301 7.23885 84.5564 7.63355C84.9279 7.23885 85.3574 6.89058 85.845 6.58875C86.2629 6.33335 86.7621 6.10117 87.3425 5.89221C87.923 5.66003 88.5614 5.54395 89.258 5.54395C90.9993 5.54395 92.3924 6.10117 93.4372 7.21563C94.482 8.33008 95.0044 9.97855 95.0044 12.161V21.7384H90.9993V12.5093C90.9993 11.5341 90.7323 10.768 90.1983 10.2107C89.6875 9.6535 89.0838 9.37488 88.3873 9.37488C87.6908 9.37488 87.0755 9.6535 86.5415 10.2107C86.0307 10.768 85.7753 11.5341 85.7753 12.5093V21.7384H81.7702V12.5093C81.7702 11.5341 81.5032 10.768 80.9692 10.2107C80.4584 9.6535 79.8548 9.37488 79.1582 9.37488C78.4617 9.37488 77.8464 9.6535 77.3124 10.2107C76.8016 10.768 76.5462 11.5341 76.5462 12.5093V21.7384H72.5412V5.71808H75.5014L76.198 7.28528C76.523 6.96023 76.8829 6.67001 77.2776 6.41461C77.6026 6.20565 77.9973 6.0083 78.4617 5.82256C78.9261 5.63682 79.4485 5.54395 80.0289 5.54395Z" fill="#0B0B2C"/>
<path d="M107.542 5.54395C108.54 5.54395 109.492 5.75291 110.398 6.17083C111.303 6.56553 112.093 7.13437 112.766 7.87733C113.463 8.59709 114.008 9.45615 114.403 10.4545C114.821 11.4529 115.03 12.5441 115.03 13.7282C115.03 14.9123 114.821 16.0036 114.403 17.0019C114.008 18.0003 113.463 18.871 112.766 19.6139C112.093 20.3337 111.303 20.9025 110.398 21.3204C109.492 21.7151 108.54 21.9125 107.542 21.9125C106.869 21.9125 106.277 21.8312 105.766 21.6687C105.278 21.5062 104.849 21.3321 104.477 21.1463C104.059 20.9141 103.688 20.6471 103.363 20.3453V27.3106H99.3577V5.71808H102.318L103.015 7.28528C103.363 6.96023 103.769 6.67001 104.233 6.41461C104.628 6.20565 105.104 6.0083 105.661 5.82256C106.219 5.63682 106.845 5.54395 107.542 5.54395ZM103.015 13.7282C103.015 15.0516 103.398 16.108 104.164 16.8975C104.93 17.6869 105.882 18.0816 107.02 18.0816C108.157 18.0816 109.109 17.6869 109.875 16.8975C110.642 16.108 111.025 15.0516 111.025 13.7282C111.025 12.4048 110.642 11.3484 109.875 10.559C109.109 9.76959 108.157 9.37488 107.02 9.37488C105.882 9.37488 104.93 9.76959 104.164 10.559C103.398 11.3484 103.015 12.4048 103.015 13.7282Z" fill="#0B0B2C"/>
<path d="M125.309 5.54395C126.215 5.54395 127.05 5.70647 127.817 6.03152C128.583 6.33335 129.244 6.76288 129.802 7.32011C130.359 7.87733 130.788 8.53904 131.09 9.30523C131.415 10.0714 131.578 10.9073 131.578 11.8128V21.7384H128.618L127.921 20.1712C127.55 20.4962 127.143 20.7864 126.702 21.0418C126.307 21.274 125.831 21.483 125.274 21.6687C124.717 21.8312 124.09 21.9125 123.394 21.9125C121.652 21.9125 120.317 21.4946 119.389 20.6587C118.46 19.7997 117.995 18.7084 117.995 17.385C117.995 16.5956 118.146 15.8759 118.448 15.2258C118.773 14.5525 119.307 13.9836 120.05 13.5193C120.793 13.0317 121.768 12.6602 122.976 12.4048C124.206 12.1262 125.739 11.9869 127.573 11.9869C127.573 11.1046 127.329 10.4197 126.841 9.93211C126.377 9.44454 125.75 9.20075 124.961 9.20075C124.427 9.20075 123.997 9.29362 123.672 9.47936C123.37 9.66511 123.127 9.86246 122.941 10.0714C122.732 10.3268 122.593 10.617 122.523 10.9421H118.518C118.611 10.1991 118.82 9.50258 119.145 8.85248C119.493 8.20238 119.957 7.63355 120.538 7.14597C121.118 6.6584 121.803 6.27531 122.593 5.99669C123.405 5.69486 124.311 5.54395 125.309 5.54395ZM124.09 18.7781C125.135 18.7781 125.971 18.4763 126.598 17.8726C127.248 17.2457 127.573 16.4447 127.573 15.4696V14.773C126.389 14.773 125.437 14.8311 124.717 14.9472C123.997 15.04 123.428 15.1909 123.01 15.3999C122.616 15.5856 122.349 15.8178 122.209 16.0964C122.07 16.3751 122.001 16.6885 122.001 17.0368C122.001 17.4779 122.198 17.8842 122.593 18.2557C122.987 18.604 123.486 18.7781 124.09 18.7781Z" fill="#0B0B2C"/>
<path d="M144.102 5.54395C145.054 5.54395 145.924 5.70647 146.714 6.03152C147.503 6.33335 148.177 6.7861 148.734 7.38976C149.314 7.97021 149.755 8.67835 150.057 9.51419C150.382 10.35 150.545 11.2904 150.545 12.3352V21.7384H146.54V12.8576C146.54 11.8128 146.226 10.9769 145.599 10.35C144.996 9.69993 144.206 9.37488 143.231 9.37488C142.256 9.37488 141.455 9.69993 140.828 10.35C140.224 10.9769 139.923 11.8128 139.923 12.8576V21.7384H135.918V5.71808H138.878L139.574 7.28528C139.969 6.96023 140.399 6.67001 140.863 6.41461C141.258 6.20565 141.722 6.0083 142.256 5.82256C142.813 5.63682 143.429 5.54395 144.102 5.54395Z" fill="#0B0B2C"/>
<path d="M153.17 5.71808H157.35L161.355 16.1661L165.011 5.71808H169.191C168.053 8.64352 167.02 11.2904 166.091 13.6586C165.696 14.6802 165.302 15.6785 164.907 16.6537C164.536 17.6288 164.199 18.5227 163.897 19.3353C163.595 20.1247 163.34 20.7864 163.131 21.3204C162.922 21.8545 162.794 22.1679 162.748 22.2608C162.353 23.2127 161.958 24.0137 161.564 24.6638C161.192 25.3371 160.786 25.8827 160.345 26.3007C159.904 26.7186 159.428 27.0204 158.917 27.2062C158.406 27.3919 157.826 27.4848 157.175 27.4848C156.99 27.4848 156.804 27.4732 156.618 27.4499C156.456 27.4499 156.316 27.4383 156.2 27.4151C156.038 27.3919 155.898 27.3571 155.782 27.3106V24.0021C156.665 24.0021 157.338 23.8047 157.802 23.41C158.29 23.0153 158.661 22.5162 158.917 21.9125L159.265 21.0418L153.17 5.71808Z" fill="#0B0B2C"/>
</svg>
