<svg width="188" height="203" viewBox="0 0 188 203" fill="none" xmlns="http://www.w3.org/2000/svg">
<path d="M169.238 0H18C8.05887 0 0 8.05887 0 18V184.958C0 194.899 8.05887 202.958 18 202.958H169.238C179.179 202.958 187.238 194.899 187.238 184.958V18C187.238 8.05887 179.179 0 169.238 0Z" fill="white"/>
<path d="M165.762 12.5391H21.4756C15.9527 12.5391 11.4756 17.0163 11.4756 22.5391V180.419C11.4756 185.942 15.9527 190.419 21.4756 190.419H165.762C171.284 190.419 175.762 185.942 175.762 180.419V22.5391C175.762 17.0163 171.284 12.5391 165.762 12.5391Z" fill="#F3F3FD"/>
<path d="M100.825 31.8721H87.4374C84.3535 31.8721 81.8535 34.3721 81.8535 37.456C81.8535 40.5398 84.3535 43.0398 87.4374 43.0398H100.825C103.909 43.0398 106.409 40.5398 106.409 37.456C106.409 34.3721 103.909 31.8721 100.825 31.8721Z" fill="#E1E1F5"/>
<path d="M119.358 117.012H87.4374C84.3535 117.012 81.8535 119.512 81.8535 122.596C81.8535 125.68 84.3535 128.18 87.4374 128.18H119.358C122.442 128.18 124.942 125.68 124.942 122.596C124.942 119.512 122.442 117.012 119.358 117.012Z" fill="#E1E1F5"/>
<path d="M117.558 53.1572H33.1405C30.0566 53.1572 27.5566 55.6572 27.5566 58.7411C27.5566 61.8249 30.0566 64.3249 33.1405 64.3249H117.558C120.642 64.3249 123.142 61.8249 123.142 58.7411C123.142 55.6572 120.642 53.1572 117.558 53.1572Z" fill="#E1E1F5"/>
<path d="M117.558 159.917H33.1405C30.0566 159.917 27.5566 162.417 27.5566 165.501C27.5566 168.585 30.0566 171.085 33.1405 171.085H117.558C120.642 171.085 123.142 168.585 123.142 165.501C123.142 162.417 120.642 159.917 117.558 159.917Z" fill="#E1E1F5"/>
<path d="M100.825 138.297H33.1405C30.0566 138.297 27.5566 140.797 27.5566 143.881C27.5566 146.965 30.0566 149.465 33.1405 149.465H100.825C103.909 149.465 106.409 146.965 106.409 143.881C106.409 140.797 103.909 138.297 100.825 138.297Z" fill="#E1E1F5"/>
<path d="M53.2955 74.4424H33.1405C30.0566 74.4424 27.5566 76.9424 27.5566 80.0263C27.5566 83.1101 30.0566 85.6101 33.1405 85.6101H53.2955C56.3794 85.6101 58.8793 83.1101 58.8793 80.0263C58.8793 76.9424 56.3794 74.4424 53.2955 74.4424Z" fill="#E1E1F5"/>
<path d="M136.9 74.4424H70.5331C67.4492 74.4424 64.9492 76.9424 64.9492 80.0263C64.9492 83.1101 67.4492 85.6101 70.5331 85.6101H136.9C139.984 85.6101 142.484 83.1101 142.484 80.0263C142.484 76.9424 139.984 74.4424 136.9 74.4424Z" fill="#E1E1F5"/>
<path d="M154.096 95.7271H33.1405C30.0566 95.7271 27.5566 98.2271 27.5566 101.311C27.5566 104.395 30.0566 106.895 33.1405 106.895H154.096C157.18 106.895 159.68 104.395 159.68 101.311C159.68 98.2271 157.18 95.7271 154.096 95.7271Z" fill="#E1E1F5"/>
<g filter="url(#filter0_d)">
<path d="M70.1993 31.8721H33.1405C30.0566 31.8721 27.5566 34.3721 27.5566 37.456C27.5566 40.5398 30.0566 43.0398 33.1405 43.0398H70.1993C73.2832 43.0398 75.7831 40.5398 75.7831 37.456C75.7831 34.3721 73.2832 31.8721 70.1993 31.8721Z" fill="#3434FF" fill-opacity="0.01"/>
</g>
<path d="M70.1993 31.8721H33.1405C30.0566 31.8721 27.5566 34.3721 27.5566 37.456C27.5566 40.5398 30.0566 43.0398 33.1405 43.0398H70.1993C73.2832 43.0398 75.7831 40.5398 75.7831 37.456C75.7831 34.3721 73.2832 31.8721 70.1993 31.8721Z" fill="#3434FF"/>
<g filter="url(#filter1_d)">
<path d="M70.1993 117.012H33.1405C30.0566 117.012 27.5566 119.512 27.5566 122.596C27.5566 125.68 30.0566 128.18 33.1405 128.18H70.1993C73.2832 128.18 75.7831 125.68 75.7831 122.596C75.7831 119.512 73.2832 117.012 70.1993 117.012Z" fill="#3434FF" fill-opacity="0.01"/>
</g>
<path d="M70.1993 117.012H33.1405C30.0566 117.012 27.5566 119.512 27.5566 122.596C27.5566 125.68 30.0566 128.18 33.1405 128.18H70.1993C73.2832 128.18 75.7831 125.68 75.7831 122.596C75.7831 119.512 73.2832 117.012 70.1993 117.012Z" fill="#3434FF"/>
<g filter="url(#filter2_d)">
<path d="M153.93 53.1567H134.796C131.712 53.1567 129.212 55.6567 129.212 58.7406C129.212 61.8244 131.712 64.3244 134.796 64.3244H153.93C157.014 64.3244 159.514 61.8244 159.514 58.7406C159.514 55.6567 157.014 53.1567 153.93 53.1567Z" fill="#3434FF" fill-opacity="0.01"/>
</g>
<path d="M153.93 53.1567H134.796C131.712 53.1567 129.212 55.6567 129.212 58.7406C129.212 61.8244 131.712 64.3244 134.796 64.3244H153.93C157.014 64.3244 159.514 61.8244 159.514 58.7406C159.514 55.6567 157.014 53.1567 153.93 53.1567Z" fill="#3434FF"/>
<g filter="url(#filter3_d)">
<path d="M153.93 159.917H134.796C131.712 159.917 129.212 162.417 129.212 165.501C129.212 168.585 131.712 171.085 134.796 171.085H153.93C157.014 171.085 159.514 168.585 159.514 165.501C159.514 162.417 157.014 159.917 153.93 159.917Z" fill="#3434FF" fill-opacity="0.01"/>
</g>
<path d="M153.93 159.917H134.796C131.712 159.917 129.212 162.417 129.212 165.501C129.212 168.585 131.712 171.085 134.796 171.085H153.93C157.014 171.085 159.514 168.585 159.514 165.501C159.514 162.417 157.014 159.917 153.93 159.917Z" fill="#3434FF"/>
<defs>
<filter id="filter0_d" x="21.5566" y="28.8721" width="60.2265" height="23.1677" filterUnits="userSpaceOnUse" color-interpolation-filters="sRGB">
<feFlood flood-opacity="0" result="BackgroundImageFix"/>
<feColorMatrix in="SourceAlpha" type="matrix" values="0 0 0 0 0 0 0 0 0 0 0 0 0 0 0 0 0 0 127 0"/>
<feOffset dy="3"/>
<feGaussianBlur stdDeviation="3"/>
<feColorMatrix type="matrix" values="0 0 0 0 0.203922 0 0 0 0 0.203922 0 0 0 0 1 0 0 0 0.32 0"/>
<feBlend mode="normal" in2="BackgroundImageFix" result="effect1_dropShadow"/>
<feBlend mode="normal" in="SourceGraphic" in2="effect1_dropShadow" result="shape"/>
</filter>
<filter id="filter1_d" x="21.5566" y="114.012" width="60.2265" height="23.1677" filterUnits="userSpaceOnUse" color-interpolation-filters="sRGB">
<feFlood flood-opacity="0" result="BackgroundImageFix"/>
<feColorMatrix in="SourceAlpha" type="matrix" values="0 0 0 0 0 0 0 0 0 0 0 0 0 0 0 0 0 0 127 0"/>
<feOffset dy="3"/>
<feGaussianBlur stdDeviation="3"/>
<feColorMatrix type="matrix" values="0 0 0 0 0.203922 0 0 0 0 0.203922 0 0 0 0 1 0 0 0 0.32 0"/>
<feBlend mode="normal" in2="BackgroundImageFix" result="effect1_dropShadow"/>
<feBlend mode="normal" in="SourceGraphic" in2="effect1_dropShadow" result="shape"/>
</filter>
<filter id="filter2_d" x="123.212" y="50.1567" width="42.3022" height="23.1677" filterUnits="userSpaceOnUse" color-interpolation-filters="sRGB">
<feFlood flood-opacity="0" result="BackgroundImageFix"/>
<feColorMatrix in="SourceAlpha" type="matrix" values="0 0 0 0 0 0 0 0 0 0 0 0 0 0 0 0 0 0 127 0"/>
<feOffset dy="3"/>
<feGaussianBlur stdDeviation="3"/>
<feColorMatrix type="matrix" values="0 0 0 0 0.203922 0 0 0 0 0.203922 0 0 0 0 1 0 0 0 0.32 0"/>
<feBlend mode="normal" in2="BackgroundImageFix" result="effect1_dropShadow"/>
<feBlend mode="normal" in="SourceGraphic" in2="effect1_dropShadow" result="shape"/>
</filter>
<filter id="filter3_d" x="123.212" y="156.917" width="42.3022" height="23.1677" filterUnits="userSpaceOnUse" color-interpolation-filters="sRGB">
<feFlood flood-opacity="0" result="BackgroundImageFix"/>
<feColorMatrix in="SourceAlpha" type="matrix" values="0 0 0 0 0 0 0 0 0 0 0 0 0 0 0 0 0 0 127 0"/>
<feOffset dy="3"/>
<feGaussianBlur stdDeviation="3"/>
<feColorMatrix type="matrix" values="0 0 0 0 0.203922 0 0 0 0 0.203922 0 0 0 0 1 0 0 0 0.32 0"/>
<feBlend mode="normal" in2="BackgroundImageFix" result="effect1_dropShadow"/>
<feBlend mode="normal" in="SourceGraphic" in2="effect1_dropShadow" result="shape"/>
</filter>
</defs>
</svg>
