<svg width="132" height="235" viewBox="0 0 132 235" fill="none" xmlns="http://www.w3.org/2000/svg">
<path d="M110 0H22C9.84974 0 0 9.84974 0 22V212.226C0 224.376 9.84974 234.226 22 234.226H110C122.15 234.226 132 224.376 132 212.226V22C132 9.84974 122.15 0 110 0Z" fill="white"/>
<g filter="url(#filter0_d)">
<path d="M85.0886 202.508H46.9122C42.3585 202.508 38.667 206.199 38.667 210.753C38.667 215.307 42.3585 218.998 46.9122 218.998H85.0886C89.6423 218.998 93.3338 215.307 93.3338 210.753C93.3338 206.199 89.6423 202.508 85.0886 202.508Z" fill="#3434FF" fill-opacity="0.01"/>
</g>
<path d="M85.0886 202.508H46.9122C42.3585 202.508 38.667 206.199 38.667 210.753C38.667 215.307 42.3585 218.998 46.9122 218.998H85.0886C89.6423 218.998 93.3338 215.307 93.3338 210.753C93.3338 206.199 89.6423 202.508 85.0886 202.508Z" fill="#3434FF"/>
<g filter="url(#filter1_d)">
<path d="M111.609 15.2275H20.3896C16.5236 15.2275 13.3896 18.3615 13.3896 22.2275V49.4008C13.3896 53.2668 16.5236 56.4008 20.3896 56.4008H111.609C115.475 56.4008 118.609 53.2668 118.609 49.4008V22.2275C118.609 18.3615 115.475 15.2275 111.609 15.2275Z" fill="#3434FF" fill-opacity="0.01"/>
</g>
<path d="M111.609 15.2275H20.3896C16.5236 15.2275 13.3896 18.3615 13.3896 22.2275V49.4008C13.3896 53.2668 16.5236 56.4008 20.3896 56.4008H111.609C115.475 56.4008 118.609 53.2668 118.609 49.4008V22.2275C118.609 18.3615 115.475 15.2275 111.609 15.2275Z" fill="#3434FF"/>
<path d="M90.679 37.9932H41.3203C39.7249 37.9932 38.4316 39.2865 38.4316 40.8819C38.4316 42.4773 39.7249 43.7706 41.3203 43.7706H90.679C92.2744 43.7706 93.5677 42.4773 93.5677 40.8819C93.5677 39.2865 92.2744 37.9932 90.679 37.9932Z" fill="#D6D6FF"/>
<path d="M80.7926 27.8564H51.2071C49.6117 27.8564 48.3184 29.1497 48.3184 30.7451C48.3184 32.3405 49.6117 33.6338 51.2071 33.6338H80.7926C82.388 33.6338 83.6813 32.3405 83.6813 30.7451C83.6813 29.1497 82.388 27.8564 80.7926 27.8564Z" fill="white"/>
<path d="M112.609 121.773H19.3896C16.0759 121.773 13.3896 124.459 13.3896 127.773V185.36C13.3896 188.673 16.0759 191.36 19.3896 191.36H112.609C115.922 191.36 118.609 188.673 118.609 185.36V127.773C118.609 124.459 115.922 121.773 112.609 121.773Z" fill="#F8F8FF"/>
<path d="M81.3853 136.384H51.8668C50.6686 136.384 49.6973 137.355 49.6973 138.553C49.6973 139.752 50.6686 140.723 51.8668 140.723H81.3853C82.5834 140.723 83.5547 139.752 83.5547 138.553C83.5547 137.355 82.5834 136.384 81.3853 136.384Z" fill="#BCBCDF"/>
<path d="M101.424 144.043H51.8668C50.6686 144.043 49.6973 145.014 49.6973 146.212C49.6973 147.411 50.6686 148.382 51.8668 148.382H101.424C102.622 148.382 103.594 147.411 103.594 146.212C103.594 145.014 102.622 144.043 101.424 144.043Z" fill="#E0E0EF"/>
<path d="M104.776 164.752H51.8668C50.6686 164.752 49.6973 165.723 49.6973 166.921C49.6973 168.12 50.6686 169.091 51.8668 169.091H104.776C105.974 169.091 106.946 168.12 106.946 166.921C106.946 165.723 105.974 164.752 104.776 164.752Z" fill="#BCBCDF"/>
<path d="M87.5337 172.412H51.8668C50.6686 172.412 49.6973 173.383 49.6973 174.581C49.6973 175.78 50.6686 176.751 51.8668 176.751H87.5337C88.7318 176.751 89.7031 175.78 89.7031 174.581C89.7031 173.383 88.7318 172.412 87.5337 172.412Z" fill="#E0E0EF"/>
<path d="M40.0148 131.52H24.2256C22.5687 131.52 21.2256 132.863 21.2256 134.52V150.247C21.2256 151.904 22.5687 153.247 24.2256 153.247H40.0148C41.6716 153.247 43.0148 151.904 43.0148 150.247V134.52C43.0148 132.863 41.6716 131.52 40.0148 131.52Z" fill="#DFDFF4"/>
<path d="M40.0148 159.888H24.2256C22.5687 159.888 21.2256 161.231 21.2256 162.888V178.615C21.2256 180.272 22.5687 181.615 24.2256 181.615H40.0148C41.6716 181.615 43.0148 180.272 43.0148 178.615V162.888C43.0148 161.231 41.6716 159.888 40.0148 159.888Z" fill="#DFDFF4"/>
<path d="M20.049 85.5441C23.7268 85.5441 26.7083 82.5707 26.7083 78.9029C26.7083 75.2351 23.7268 72.2617 20.049 72.2617C16.3712 72.2617 13.3897 75.2351 13.3897 78.9029C13.3897 82.5707 16.3712 85.5441 20.049 85.5441Z" fill="#3434FF"/>
<path d="M79.6349 85.5441C83.3127 85.5441 86.2942 82.5707 86.2942 78.9029C86.2942 75.2351 83.3127 72.2617 79.6349 72.2617C75.9571 72.2617 72.9756 75.2351 72.9756 78.9029C72.9756 82.5707 75.9571 85.5441 79.6349 85.5441Z" fill="#3434FF"/>
<path d="M20.049 107.546C23.7268 107.546 26.7083 104.573 26.7083 100.905C26.7083 97.2372 23.7268 94.2638 20.049 94.2638C16.3712 94.2638 13.3897 97.2372 13.3897 100.905C13.3897 104.573 16.3712 107.546 20.049 107.546Z" fill="#DFDFF4"/>
<path d="M79.6349 107.546C83.3127 107.546 86.2942 104.573 86.2942 100.905C86.2942 97.2372 83.3127 94.2638 79.6349 94.2638C75.9571 94.2638 72.9756 97.2372 72.9756 100.905C72.9756 104.573 75.9571 107.546 79.6349 107.546Z" fill="#DFDFF4"/>
<path d="M49.3547 73.7422H32.5944C31.702 73.7422 30.9785 74.4656 30.9785 75.358C30.9785 76.2505 31.702 76.9739 32.5944 76.9739H49.3547C50.2471 76.9739 50.9705 76.2505 50.9705 75.358C50.9705 74.4656 50.2471 73.7422 49.3547 73.7422Z" fill="#BCBCDF"/>
<path d="M108.94 73.7422H92.1793C91.2869 73.7422 90.5635 74.4656 90.5635 75.358C90.5635 76.2505 91.2869 76.9739 92.1793 76.9739H108.94C109.832 76.9739 110.555 76.2505 110.555 75.358C110.555 74.4656 109.832 73.7422 108.94 73.7422Z" fill="#BCBCDF"/>
<path d="M49.3547 95.7451H32.5944C31.702 95.7451 30.9785 96.4685 30.9785 97.3609C30.9785 98.2534 31.702 98.9768 32.5944 98.9768H49.3547C50.2471 98.9768 50.9705 98.2534 50.9705 97.3609C50.9705 96.4685 50.2471 95.7451 49.3547 95.7451Z" fill="#BCBCDF"/>
<path d="M108.94 95.7451H92.1793C91.2869 95.7451 90.5635 96.4685 90.5635 97.3609C90.5635 98.2534 91.2869 98.9768 92.1793 98.9768H108.94C109.832 98.9768 110.555 98.2534 110.555 97.3609C110.555 96.4685 109.832 95.7451 108.94 95.7451Z" fill="#BCBCDF"/>
<path d="M57.4077 79.9746H32.5944C31.702 79.9746 30.9785 80.698 30.9785 81.5904C30.9785 82.4829 31.702 83.2063 32.5944 83.2063H57.4077C58.3001 83.2063 59.0235 82.4829 59.0235 81.5904C59.0235 80.698 58.3001 79.9746 57.4077 79.9746Z" fill="#E0E0EF"/>
<path d="M116.993 79.9746H92.1793C91.2869 79.9746 90.5635 80.698 90.5635 81.5904C90.5635 82.4829 91.2869 83.2063 92.1793 83.2063H116.993C117.885 83.2063 118.608 82.4829 118.608 81.5904C118.608 80.698 117.885 79.9746 116.993 79.9746Z" fill="#E0E0EF"/>
<path d="M57.4077 101.977H32.5944C31.702 101.977 30.9785 102.7 30.9785 103.593C30.9785 104.485 31.702 105.209 32.5944 105.209H57.4077C58.3001 105.209 59.0235 104.485 59.0235 103.593C59.0235 102.7 58.3001 101.977 57.4077 101.977Z" fill="#E0E0EF"/>
<path d="M116.993 101.977H92.1793C91.2869 101.977 90.5635 102.7 90.5635 103.593C90.5635 104.485 91.2869 105.209 92.1793 105.209H116.993C117.885 105.209 118.608 104.485 118.608 103.593C118.608 102.7 117.885 101.977 116.993 101.977Z" fill="#E0E0EF"/>
<defs>
<filter id="filter0_d" x="32.667" y="199.508" width="66.6668" height="28.4903" filterUnits="userSpaceOnUse" color-interpolation-filters="sRGB">
<feFlood flood-opacity="0" result="BackgroundImageFix"/>
<feColorMatrix in="SourceAlpha" type="matrix" values="0 0 0 0 0 0 0 0 0 0 0 0 0 0 0 0 0 0 127 0"/>
<feOffset dy="3"/>
<feGaussianBlur stdDeviation="3"/>
<feColorMatrix type="matrix" values="0 0 0 0 0.203922 0 0 0 0 0.203922 0 0 0 0 1 0 0 0 0.32 0"/>
<feBlend mode="normal" in2="BackgroundImageFix" result="effect1_dropShadow"/>
<feBlend mode="normal" in="SourceGraphic" in2="effect1_dropShadow" result="shape"/>
</filter>
<filter id="filter1_d" x="5.38959" y="13.2275" width="121.219" height="57.1733" filterUnits="userSpaceOnUse" color-interpolation-filters="sRGB">
<feFlood flood-opacity="0" result="BackgroundImageFix"/>
<feColorMatrix in="SourceAlpha" type="matrix" values="0 0 0 0 0 0 0 0 0 0 0 0 0 0 0 0 0 0 127 0"/>
<feOffset dy="6"/>
<feGaussianBlur stdDeviation="4"/>
<feColorMatrix type="matrix" values="0 0 0 0 0.203922 0 0 0 0 0.203922 0 0 0 0 1 0 0 0 0.1 0"/>
<feBlend mode="normal" in2="BackgroundImageFix" result="effect1_dropShadow"/>
<feBlend mode="normal" in="SourceGraphic" in2="effect1_dropShadow" result="shape"/>
</filter>
</defs>
</svg>
