<svg width="484" height="309" viewBox="0 0 484 309" fill="none" xmlns="http://www.w3.org/2000/svg">
<path d="M460.031 0.592773H23.8203C11.1178 0.592773 0.820312 10.8902 0.820312 23.5928V285.308C0.820312 298.01 11.1178 308.308 23.8203 308.308H460.031C472.734 308.308 483.031 298.01 483.031 285.308V23.5928C483.031 10.8902 472.734 0.592773 460.031 0.592773Z" fill="white"/>
<path d="M328.841 37.0322C319.605 37.0322 312.092 44.5456 312.092 53.7819C312.092 63.0183 319.605 70.5316 328.841 70.5316C338.078 70.5316 345.591 63.0183 345.591 53.7819C345.591 44.5456 338.078 37.0322 328.841 37.0322ZM327.486 59.2914C326.153 60.0757 324.472 59.1144 324.472 57.5676V49.9963C324.472 48.4494 326.153 47.4881 327.486 48.2724L333.922 52.0581C335.236 52.8314 335.236 54.7325 333.922 55.5058L327.486 59.2914Z" fill="#B5B5E2"/>
<path d="M415.286 40.0151H357.274C355.052 40.0151 353.251 41.8161 353.251 44.0378C353.251 46.2595 355.052 48.0606 357.274 48.0606H415.286C417.507 48.0606 419.308 46.2595 419.308 44.0378C419.308 41.8161 417.507 40.0151 415.286 40.0151Z" fill="#BBBBD5"/>
<path d="M444.877 53.2656H355.891C354.433 53.2656 353.251 54.4477 353.251 55.906C353.251 57.3642 354.433 58.5463 355.891 58.5463H444.877C446.336 58.5463 447.518 57.3642 447.518 55.906C447.518 54.4477 446.336 53.2656 444.877 53.2656Z" fill="#E5E5EE"/>
<path d="M408.407 62.2666H355.891C354.433 62.2666 353.251 63.4487 353.251 64.907C353.251 66.3652 354.433 67.5473 355.891 67.5473H408.407C409.865 67.5473 411.047 66.3652 411.047 64.907C411.047 63.4487 409.865 62.2666 408.407 62.2666Z" fill="#E5E5EE"/>
<path d="M328.841 87.3667C319.605 87.3667 312.092 94.88 312.092 104.116C312.092 113.353 319.605 120.866 328.841 120.866C338.078 120.866 345.591 113.353 345.591 104.116C345.591 94.88 338.078 87.3667 328.841 87.3667ZM327.486 109.626C326.153 110.41 324.472 109.449 324.472 107.902V100.331C324.472 98.7839 326.153 97.8226 327.486 98.6069L333.922 102.393C335.236 103.166 335.236 105.067 333.922 105.84L327.486 109.626Z" fill="#B5B5E2"/>
<path d="M386.386 90.3496H357.275C355.053 90.3496 353.252 92.1506 353.252 94.3723C353.252 96.594 355.053 98.3951 357.275 98.3951H386.386C388.608 98.3951 390.409 96.594 390.409 94.3723C390.409 92.1506 388.608 90.3496 386.386 90.3496Z" fill="#BBBBD5"/>
<path d="M408.408 103.6H355.892C354.434 103.6 353.252 104.782 353.252 106.24C353.252 107.699 354.434 108.881 355.892 108.881H408.408C409.866 108.881 411.048 107.699 411.048 106.24C411.048 104.782 409.866 103.6 408.408 103.6Z" fill="#E5E5EE"/>
<path d="M444.878 112.602H355.892C354.434 112.602 353.252 113.784 353.252 115.242C353.252 116.701 354.434 117.883 355.892 117.883H444.878C446.337 117.883 447.519 116.701 447.519 115.242C447.519 113.784 446.337 112.602 444.878 112.602Z" fill="#E5E5EE"/>
<path d="M328.841 137.7C319.605 137.7 312.092 145.214 312.092 154.45C312.092 163.686 319.605 171.2 328.841 171.2C338.078 171.2 345.591 163.686 345.591 154.45C345.591 145.214 338.078 137.7 328.841 137.7ZM327.486 159.959C326.153 160.744 324.472 159.782 324.472 158.236V150.664C324.472 149.117 326.153 148.156 327.486 148.94L333.922 152.726C335.236 153.499 335.236 155.4 333.922 156.174L327.486 159.959Z" fill="#B5B5E2"/>
<path d="M434.28 140.684H357.275C355.053 140.684 353.252 142.485 353.252 144.707C353.252 146.928 355.053 148.729 357.275 148.729H434.28C436.501 148.729 438.303 146.928 438.303 144.707C438.303 142.485 436.501 140.684 434.28 140.684Z" fill="#BBBBD5"/>
<path d="M422.348 153.933H355.892C354.434 153.933 353.252 155.115 353.252 156.573C353.252 158.032 354.434 159.214 355.892 159.214H422.348C423.806 159.214 424.989 158.032 424.989 156.573C424.989 155.115 423.806 153.933 422.348 153.933Z" fill="#E5E5EE"/>
<path d="M444.878 162.937H355.892C354.434 162.937 353.252 164.119 353.252 165.577C353.252 167.036 354.434 168.218 355.892 168.218H444.878C446.337 168.218 447.519 167.036 447.519 165.577C447.519 164.119 446.337 162.937 444.878 162.937Z" fill="#E5E5EE"/>
<path d="M328.841 188.035C319.605 188.035 312.092 195.548 312.092 204.785C312.092 214.021 319.605 221.535 328.841 221.535C338.078 221.535 345.591 214.021 345.591 204.785C345.591 195.548 338.078 188.035 328.841 188.035ZM327.486 210.294C326.153 211.079 324.472 210.117 324.472 208.57V200.999C324.472 199.452 326.153 198.491 327.486 199.275L333.922 203.061C335.236 203.834 335.236 205.735 333.922 206.509L327.486 210.294Z" fill="#B5B5E2"/>
<path d="M386.386 191.019H357.275C355.053 191.019 353.252 192.82 353.252 195.042C353.252 197.263 355.053 199.064 357.275 199.064H386.386C388.608 199.064 390.409 197.263 390.409 195.042C390.409 192.82 388.608 191.019 386.386 191.019Z" fill="#BBBBD5"/>
<path d="M433.872 204.268H355.892C354.434 204.268 353.252 205.45 353.252 206.908C353.252 208.367 354.434 209.549 355.892 209.549H433.872C435.33 209.549 436.512 208.367 436.512 206.908C436.512 205.45 435.33 204.268 433.872 204.268Z" fill="#E5E5EE"/>
<path d="M403.86 213.27H355.892C354.434 213.27 353.252 214.452 353.252 215.91C353.252 217.369 354.434 218.551 355.892 218.551H403.86C405.318 218.551 406.5 217.369 406.5 215.91C406.5 214.452 405.318 213.27 403.86 213.27Z" fill="#E5E5EE"/>
<path d="M328.841 238.37C319.605 238.37 312.092 245.883 312.092 255.119C312.092 264.356 319.605 271.869 328.841 271.869C338.078 271.869 345.591 264.356 345.591 255.119C345.591 245.883 338.078 238.37 328.841 238.37ZM327.486 260.629C326.153 261.413 324.472 260.452 324.472 258.905V251.334C324.472 249.787 326.153 248.826 327.486 249.61L333.922 253.395C335.236 254.169 335.236 256.07 333.922 256.843L327.486 260.629Z" fill="#6B6B89"/>
<path d="M386.386 241.353H357.275C355.053 241.353 353.252 243.154 353.252 245.376C353.252 247.597 355.053 249.398 357.275 249.398H386.386C388.608 249.398 390.409 247.597 390.409 245.376C390.409 243.154 388.608 241.353 386.386 241.353Z" fill="#BBBBD5"/>
<path d="M433.872 254.602H355.892C354.434 254.602 353.252 255.784 353.252 257.242C353.252 258.701 354.434 259.883 355.892 259.883H433.872C435.33 259.883 436.512 258.701 436.512 257.242C436.512 255.784 435.33 254.602 433.872 254.602Z" fill="#E5E5EE"/>
<path d="M403.86 263.604H355.892C354.434 263.604 353.252 264.786 353.252 266.244C353.252 267.703 354.434 268.885 355.892 268.885H403.86C405.318 268.885 406.5 267.703 406.5 266.244C406.5 264.786 405.318 263.604 403.86 263.604Z" fill="#E5E5EE"/>
<path d="M268.894 37.0327H43.333C39.467 37.0327 36.333 40.1667 36.333 44.0327V164.386C36.333 168.252 39.467 171.386 43.333 171.386H268.894C272.76 171.386 275.894 168.252 275.894 164.386V44.0327C275.894 40.1667 272.76 37.0327 268.894 37.0327Z" fill="#EDEDFF"/>
<g filter="url(#filter0_d)">
<path d="M156.113 67.2734C136.513 67.2734 120.569 83.2172 120.569 102.817C120.569 122.418 136.513 138.361 156.113 138.361C175.713 138.361 191.657 122.418 191.657 102.817C191.657 83.2172 175.713 67.2734 156.113 67.2734ZM149.855 116.498C148.522 117.283 146.841 116.321 146.841 114.774V90.8603C146.841 89.3135 148.522 88.3522 149.855 89.1365L170.182 101.094C171.497 101.867 171.497 103.768 170.182 104.541L149.855 116.498Z" fill="#3434FF" fill-opacity="0.01"/>
</g>
<path d="M156.53 123.96C168.256 123.96 177.762 114.454 177.762 102.728C177.762 91.0021 168.256 81.4964 156.53 81.4964C144.804 81.4964 135.298 91.0021 135.298 102.728C135.298 114.454 144.804 123.96 156.53 123.96Z" fill="white"/>
<path d="M156.113 67.2734C136.513 67.2734 120.569 83.2172 120.569 102.817C120.569 122.418 136.513 138.361 156.113 138.361C175.713 138.361 191.657 122.418 191.657 102.817C191.657 83.2172 175.713 67.2734 156.113 67.2734ZM149.855 116.498C148.522 117.283 146.841 116.321 146.841 114.774V90.8603C146.841 89.3135 148.522 88.3522 149.855 89.1365L170.182 101.094C171.497 101.867 171.497 103.768 170.182 104.541L149.855 116.498Z" fill="#3434FF"/>
<path d="M172.091 183.098H41.9848C38.8629 183.098 36.332 185.629 36.332 188.751V188.751C36.332 191.873 38.8629 194.404 41.9848 194.404H172.091C175.213 194.404 177.744 191.873 177.744 188.751C177.744 185.629 175.213 183.098 172.091 183.098Z" fill="#BBBBD4"/>
<path d="M271.371 243.606H40.8543C38.3567 243.606 36.332 245.631 36.332 248.128C36.332 250.626 38.3567 252.65 40.8543 252.65H271.371C273.868 252.65 275.893 250.626 275.893 248.128C275.893 245.631 273.868 243.606 271.371 243.606Z" fill="#E7E7F4"/>
<path d="M124.863 201.187H40.8543C38.3567 201.187 36.332 203.212 36.332 205.709C36.332 208.207 38.3567 210.231 40.8543 210.231H124.863C127.36 210.231 129.385 208.207 129.385 205.709C129.385 203.212 127.36 201.187 124.863 201.187Z" fill="#E7E7F4"/>
<path d="M189.447 262.825H40.8543C38.3567 262.825 36.332 264.85 36.332 267.347C36.332 269.845 38.3567 271.869 40.8543 271.869H189.447C191.944 271.869 193.969 269.845 193.969 267.347C193.969 264.85 191.944 262.825 189.447 262.825Z" fill="#E7E7F4"/>
<path d="M246.687 198.87C251.042 198.87 254.573 195.339 254.573 190.984C254.573 186.629 251.042 183.098 246.687 183.098C242.332 183.098 238.801 186.629 238.801 190.984C238.801 195.339 242.332 198.87 246.687 198.87Z" fill="#E7E7F4"/>
<path d="M268.007 198.87C272.362 198.87 275.893 195.339 275.893 190.984C275.893 186.629 272.362 183.098 268.007 183.098C263.652 183.098 260.121 186.629 260.121 190.984C260.121 195.339 263.652 198.87 268.007 198.87Z" fill="#E7E7F4"/>
<path d="M36.332 227.534H275.893" stroke="#E7E7F4"/>
<defs>
<filter id="filter0_d" x="96.569" y="47.2734" width="119.088" height="119.088" filterUnits="userSpaceOnUse" color-interpolation-filters="sRGB">
<feFlood flood-opacity="0" result="BackgroundImageFix"/>
<feColorMatrix in="SourceAlpha" type="matrix" values="0 0 0 0 0 0 0 0 0 0 0 0 0 0 0 0 0 0 127 0"/>
<feOffset dy="4"/>
<feGaussianBlur stdDeviation="12"/>
<feColorMatrix type="matrix" values="0 0 0 0 0.203922 0 0 0 0 0.203922 0 0 0 0 1 0 0 0 0.54 0"/>
<feBlend mode="normal" in2="BackgroundImageFix" result="effect1_dropShadow"/>
<feBlend mode="normal" in="SourceGraphic" in2="effect1_dropShadow" result="shape"/>
</filter>
</defs>
</svg>
