<svg width="207" height="141" viewBox="0 0 207 141" fill="none" xmlns="http://www.w3.org/2000/svg">
<g clip-path="url(#clip0)">
<path d="M188.27 0.5H18C8.05887 0.5 0 8.55887 0 18.5V121.657C0 131.598 8.05887 139.657 18 139.657H188.27C198.211 139.657 206.27 131.598 206.27 121.657V18.5C206.27 8.55887 198.211 0.5 188.27 0.5Z" fill="white"/>
<path d="M188.558 11.7891H17.7129C14.3992 11.7891 11.7129 14.4754 11.7129 17.7891V122.368C11.7129 125.682 14.3992 128.368 17.7129 128.368H188.558C191.872 128.368 194.558 125.682 194.558 122.368V17.7891C194.558 14.4754 191.872 11.7891 188.558 11.7891Z" fill="#F8F8FF"/>
<path d="M55.373 67.7172C55.373 65.1236 53.2704 63.021 50.6768 63.021C48.0831 63.021 45.9805 65.1236 45.9805 67.7172V110.487C45.9805 113.081 48.0831 115.183 50.6768 115.183C53.2704 115.183 55.373 113.081 55.373 110.487V67.7172Z" fill="#E0E0F2"/>
<path d="M90.3456 67.7172C90.3456 65.1236 88.243 63.021 85.6493 63.021C83.0557 63.021 80.9531 65.1236 80.9531 67.7172V110.487C80.9531 113.081 83.0557 115.183 85.6493 115.183C88.243 115.183 90.3456 113.081 90.3456 110.487V67.7172Z" fill="#E0E0F2"/>
<path d="M125.317 75.2411C125.317 72.6475 123.215 70.5449 120.621 70.5449C118.028 70.5449 115.925 72.6475 115.925 75.2411V110.488C115.925 113.081 118.028 115.184 120.621 115.184C123.215 115.184 125.317 113.081 125.317 110.488V75.2411Z" fill="#E0E0F2"/>
<path d="M160.289 75.2406C160.289 72.647 158.187 70.5444 155.593 70.5444C153 70.5444 150.897 72.647 150.897 75.2406V110.487C150.897 113.081 153 115.183 155.593 115.183C158.187 115.183 160.289 113.081 160.289 110.487V75.2406Z" fill="#E0E0F2"/>
<g filter="url(#filter0_d)">
<path d="M37.8866 85.0225C37.8866 82.4288 35.784 80.3262 33.1904 80.3262C30.5967 80.3262 28.4941 82.4288 28.4941 85.0225V110.489C28.4941 113.082 30.5967 115.185 33.1904 115.185C35.784 115.185 37.8866 113.082 37.8866 110.489V85.0225Z" fill="#3434FF" fill-opacity="0.01"/>
<path d="M72.8593 58.1309C72.8593 55.5372 70.7567 53.4346 68.163 53.4346C65.5694 53.4346 63.4668 55.5372 63.4668 58.1309V110.487C63.4668 113.081 65.5694 115.183 68.163 115.183C70.7567 115.183 72.8593 113.081 72.8593 110.487V58.1309Z" fill="#3434FF" fill-opacity="0.01"/>
<path d="M107.831 47.6553C107.831 45.0616 105.728 42.959 103.135 42.959C100.541 42.959 98.4385 45.0616 98.4385 47.6553V110.488C98.4385 113.081 100.541 115.184 103.135 115.184C105.728 115.184 107.831 113.081 107.831 110.488V47.6553Z" fill="#3434FF" fill-opacity="0.01"/>
<path d="M142.804 36.7441C142.804 34.1505 140.701 32.0479 138.107 32.0479C135.514 32.0479 133.411 34.1505 133.411 36.7441V110.488C133.411 113.082 135.514 115.184 138.107 115.184C140.701 115.184 142.804 113.082 142.804 110.488V36.7441Z" fill="#3434FF" fill-opacity="0.01"/>
<path d="M177.777 29.668C177.777 27.0743 175.674 24.9717 173.08 24.9717C170.487 24.9717 168.384 27.0743 168.384 29.668V110.488C168.384 113.082 170.487 115.184 173.08 115.184C175.674 115.184 177.777 113.082 177.777 110.488V29.668Z" fill="#3434FF" fill-opacity="0.01"/>
</g>
<path d="M37.8866 85.0225C37.8866 82.4288 35.784 80.3262 33.1904 80.3262C30.5967 80.3262 28.4941 82.4288 28.4941 85.0225V110.489C28.4941 113.082 30.5967 115.185 33.1904 115.185C35.784 115.185 37.8866 113.082 37.8866 110.489V85.0225Z" fill="#3434FF"/>
<path d="M72.8593 58.1309C72.8593 55.5372 70.7567 53.4346 68.163 53.4346C65.5694 53.4346 63.4668 55.5372 63.4668 58.1309V110.487C63.4668 113.081 65.5694 115.183 68.163 115.183C70.7567 115.183 72.8593 113.081 72.8593 110.487V58.1309Z" fill="#3434FF"/>
<path d="M107.831 47.6553C107.831 45.0616 105.728 42.959 103.135 42.959C100.541 42.959 98.4385 45.0616 98.4385 47.6553V110.488C98.4385 113.081 100.541 115.184 103.135 115.184C105.728 115.184 107.831 113.081 107.831 110.488V47.6553Z" fill="#3434FF"/>
<path d="M142.804 36.7441C142.804 34.1505 140.701 32.0479 138.107 32.0479C135.514 32.0479 133.411 34.1505 133.411 36.7441V110.488C133.411 113.082 135.514 115.184 138.107 115.184C140.701 115.184 142.804 113.082 142.804 110.488V36.7441Z" fill="#3434FF"/>
<path d="M177.777 29.668C177.777 27.0743 175.674 24.9717 173.08 24.9717C170.487 24.9717 168.384 27.0743 168.384 29.668V110.488C168.384 113.082 170.487 115.184 173.08 115.184C175.674 115.184 177.777 113.082 177.777 110.488V29.668Z" fill="#3434FF"/>
</g>
<defs>
<filter id="filter0_d" x="24.4941" y="22.9717" width="157.282" height="98.2131" filterUnits="userSpaceOnUse" color-interpolation-filters="sRGB">
<feFlood flood-opacity="0" result="BackgroundImageFix"/>
<feColorMatrix in="SourceAlpha" type="matrix" values="0 0 0 0 0 0 0 0 0 0 0 0 0 0 0 0 0 0 127 0"/>
<feOffset dy="2"/>
<feGaussianBlur stdDeviation="2"/>
<feColorMatrix type="matrix" values="0 0 0 0 0.203922 0 0 0 0 0.203922 0 0 0 0 1 0 0 0 0.35 0"/>
<feBlend mode="normal" in2="BackgroundImageFix" result="effect1_dropShadow"/>
<feBlend mode="normal" in="SourceGraphic" in2="effect1_dropShadow" result="shape"/>
</filter>
<clipPath id="clip0">
<rect width="207" height="140" fill="white" transform="translate(0 0.5)"/>
</clipPath>
</defs>
</svg>
